<?xml version="1.0" encoding="UTF-8"?>
<svg id="Camada_1" data-name="Camada 1" xmlns="http://www.w3.org/2000/svg" viewBox="0 0 1080 1080">
  <defs>
    <style>
      .cls-1 {
        fill: #082045;
      }
    </style>
  </defs>
  <path class="cls-1" d="M555.3,470.34c-3.97-4.9-9.14-8.73-14.85-11.39-5.72-2.6-11.5-5.18-17.61-6.74-6.09-1.61-12.45-2.16-18.72-1.61-3.13.25-6.25.69-9.37,1.03-3.13.39-6.28.53-9.39,1.14-2.61-4.31-5.66-8.32-9-12.08-3.36-3.75-7.01-7.25-10.79-10.57-7.55-6.66-15.93-12.35-24.78-17.15-8.88-4.77-18.89-7.27-28.95-7.77-10.08-.59-20.09,1.33-29.81,3.85l-7.54,2.68c-8.46,16.67-14.46,34.96-17.43,54.44-5.36,35.02-.21,69.24,13.02,99.52-3.11-.84-6.61-1.37-10.58-1.39h-.79c-12.52-31.27-16.56-65.43-11.33-99.61,1.16-7.6,2.78-15.13,4.84-22.53,2.03-7.28,4.49-14.45,7.38-21.44,2.84-6.88,6.08-13.59,9.71-20.09,3.59-6.43,7.56-12.65,11.87-18.62,4.28-5.92,8.9-11.6,13.83-17,4.91-5.37,10.13-10.46,15.62-15.24,5.48-4.78,11.22-9.24,17.21-13.36,5.98-4.13,12.2-7.92,18.62-11.34.26-.14.89-.49.89-.49,0,0-.06-1.17-.05-1.54.21-8.33,4.87-20.03,10.39-26.91-.18.57-.37,1.14-.53,1.72-2.1,7.58-3.18,15.43-3.18,23.29v.11s.04-.03.05-.03c0,.35-.01.7-.01,1.05.01,3.07.15,6.13.42,9.18.02.18.03.34.03.53.41,4.23,1.04,8.42,2.12,12.55,1.99,7.6,5.1,14.93,9.4,21.51-6.02-5.49-10.67-12.58-13.8-20.38-.77-1.94-1.46-3.94-2.07-5.99-.45-1.61-.81-3.21-1.17-4.78-28.08,15.47-51.92,38.22-68.57,66.15,4.88-1.14,9.96-2.23,15.26-2.92,5.46-.71,11.07-.92,16.59-.55,5.53.35,11.04,1.29,16.4,2.78,5.33,1.47,10.71,3.66,15.47,6.31,4.81,2.64,9.13,5.5,13.45,8.54,4.27,3.02,8.54,6.45,12.36,9.96,6.76,6.3,13.2,13.37,18.28,21.47,2.09-.27,4.08-.39,5.94-.67,2.99-.25,6.24-.62,9.58-.8,3.32-.23,6.86-.03,10.28.44,3.42.47,6.75,1.27,9.97,2.28,3.19,1.12,6.27,2.47,9.18,3.95,2.89,1.53,5.66,2.91,8.46,4.7,2.79,1.75,5.51,3.76,7.84,6.06,2.27,2.41,4.38,4.87,5.86,7.75Z"/>
  <path class="cls-1" d="M526.75,245.66c-1.2.63-2.42,1.21-3.59,1.9-.82.49-1.63.95-2.61.69-1.2-.33-2.16-1.24-3.17-1.91-1.16-.77-2.37-1.46-3.57-2.17,1.16-.55,2.39-.99,3.5-1.65.76-.45,1.57-1.18,2.53-1,.56.1.97.52,1.42.83.59.44,1.24.78,1.88,1.14,1.22.7,2.4,1.44,3.61,2.17Z"/>
  <path class="cls-1" d="M564.84,239.66c-3.33-.42-6.69-.54-10.04-.5-5.67.05-11.36.59-16.87,2.03-1.38.36-2.75.78-4.09,1.25-.68.25-1.34.51-1.96.85-.5.26-1,.54-1.58.53-1.09-.03-1.98-.88-2.84-1.46-1.32-.87-2.71-1.62-4.06-2.43,3.04-1.01,6.18-1.76,9.32-2.37,5.38-1.06,10.85-1.69,16.33-1.55,5.42.13,10.95,1.06,15.79,3.65Z"/>
  <path class="cls-1" d="M571.39,244.59c-1.23-.16-2.47-.27-3.7-.36-9.24-.63-18.56.62-27.37,3.43-9.04,2.9-17.53,7.47-25.05,13.25-8.04,6.19-14.97,13.79-20.57,22.24-5.69,8.58-10.06,18.06-12.67,28.03-2.43,9.33-3.42,19.05-2.77,28.68-.14-1.08-.26-2.17-.35-3.26-.77-8.55-.21-17.22,1.64-25.6,1.97-8.93,5.37-17.53,9.9-25.46,4.55-7.96,10.25-15.27,16.92-21.57,6.29-5.93,13.46-10.95,21.27-14.66,7.45-3.54,15.5-5.87,23.74-6.56,6.38-.47,12.86.05,19.01,1.84Z"/>
  <path class="cls-1" d="M476.66,354.06c-3.1-5.43-5.11-11.45-6.17-17.59.62,4.93,1.6,9.8,2.67,14.66-2.35-4.12-4.07-8.59-5.23-13.19-3.8-15-1.58-31.48,6.24-44.85-2.22,9.52-4.2,19.17-4.42,28.98-.01.19,0,.38,0,.58.56-9.32,3.19-18.55,7.92-26.63-1.02,4.36-2.04,8.73-2.82,13.14-1.28,7.4-1.88,14.92-1.53,22.43.35,7.57,1.71,15.06,3.34,22.47Z"/>
  <path class="cls-1" d="M517.31,382.78c-4.68-7.11-6.95-15.52-7.84-23.91.61,7.38,1.98,14.72,4.25,21.77-3.99-6.08-6.2-13.17-7.34-20.32.72,6.19,1.97,12.33,3.89,18.25-3.91-5.93-6.11-12.84-7.27-19.82.73,6.03,1.96,12,3.83,17.77-2.18-3.33-3.81-7-5.05-10.77-4.12-12.46-4.2-26.13-.74-38.76,1.51-5.45,3.69-10.75,6.74-15.52-2.97,9.56-4.97,19.46-5.44,29.47.87-9.64,3.63-19.23,8.88-27.42-3.01,9.67-5.02,19.7-5.46,29.84.83-9.76,3.61-19.48,8.92-27.77-.79,2.52-1.52,5.08-2.15,7.66-2.15,8.63-3.38,17.49-3.41,26.39.29-11.17,3.08-22.45,9.14-31.91-1.52,4.85-2.81,9.79-3.76,14.81-3.14,16.62-2.41,34.1,2.81,50.24Z"/>
  <path class="cls-1" d="M614.23,259.53c-5.03-1.33-10.28-1.7-15.48-1.65-8.71.09-17.37,1.77-25.48,4.91-2.1.82-4.22,1.7-6.13,2.92-.75.48-1.51,1.16-2.43,1.26-1.09.12-1.97-.69-2.79-1.3-.94-.7-1.98-1.25-2.97-1.89-.93-.59-1.82-1.4-2.93-1.65-1.84-.39-3.3,1.06-4.76,1.92,2.96,1.76,5.91,3.53,8.86,5.3-.86.57-1.73,1.15-2.58,1.75-.71.53-1.4,1.16-2.21,1.54-1.49.7-2.77-.25-3.98-1.04-1.52-1-3.16-1.8-4.66-2.83-.52-.37-1.09-.8-1.77-.7-.71.11-1.2.72-1.71,1.17-2.54,2.33-5.53,4.13-8.23,6.28-5.68,4.54-10.87,9.7-15.77,15.07,2.96-4.94,6.65-9.4,10.66-13.52,6.6-6.76,14.23-12.56,22.66-16.86,7.89-4.01,16.54-6.66,25.41-7.17,2.83-.39,5.68-.62,8.54-.64,9.65-.07,19.38,2.29,27.75,7.13Z"/>
  <path class="cls-1" d="M659.27,320.93c-.34-2.58-.82-5.15-1.47-7.67-2.36-9.19-7.04-18.04-14.32-24.27-2.14-1.84-4.53-3.36-6.96-4.82-2.48-1.48-4.94-2.98-7.44-4.44-4.72-2.75-9.7-5.19-15.08-6.35-9.3-2.01-19.06-.68-27.94,2.5-9.43,3.38-18.02,8.9-25.43,15.6-8.13,7.35-14.91,16.15-20.11,25.78-5.15,9.54-8.78,19.95-10.33,30.7-1.4,9.65-1.16,19.64,1.51,29.07,2.61,9.16,7.67,17.82,15.14,23.85,2.19,1.76,4.59,3.24,6.99,4.68,2.45,1.45,4.91,2.93,7.37,4.39,2.41,1.42,4.86,2.82,7.48,3.84,2.53.98,5.17,1.65,7.83,2.1,9.38,1.59,19.1.15,27.93-3.25-2.29,1.02-4.65,1.93-7.04,2.72-8.7,2.87-17.97,4.19-27.12,3.4-9.74-.84-19.28-4.12-27.38-9.61-7.98-5.4-14.45-12.92-18.93-21.43-4.29-8.16-6.76-17.23-7.64-26.39-.92-9.55-.11-19.24,2.12-28.55,2.42-10.06,6.53-19.71,11.97-28.5,5.4-8.7,12.13-16.59,19.97-23.17,7.34-6.15,15.65-11.17,24.61-14.56,8.61-3.24,17.83-4.99,27.04-4.67,9.74.34,19.43,3.06,27.82,8.06,4.46,2.67,8.54,5.95,12.11,9.73,5.22,5.53,9.27,12.11,12.13,19.14,2.87,7.04,4.57,14.54,5.17,22.12Z"/>
  <path class="cls-1" d="M620.28,279.38c-2.82-.32-5.68-.16-8.51.16-9.01,1.02-17.72,4.31-25.27,9.3-2.99-1.79-5.98-3.57-8.97-5.36,3.32-1.67,6.8-3,10.33-4.15,10.34-3.37,22.42-5.51,32.42.05Z"/>
  <path class="cls-1" d="M581.6,291.57c-1.21.93-2.49,1.77-3.65,2.78-.78.67-1.52,1.38-2.62.95-1.4-.57-2.65-1.57-3.93-2.35-1.38-.83-2.75-1.66-4.13-2.48,1.83-1.39,3.66-2.79,5.51-4.18l8.82,5.28Z"/>
  <path class="cls-1" d="M542.99,383.06c-2.96-3.58-4.61-8.07-5.38-12.6.39,3.67,1.21,7.28,2.23,10.82-2.16-2.61-3.64-5.75-4.61-8.99-1.7-5.67-1.84-11.7-1.08-17.53.84-6.42,2.69-12.77,6.07-18.32-1.22,7.43-2.43,14.89-2.84,22.41.37-3.24,1.03-6.46,2-9.59,1.17-3.69,2.68-7.3,4.81-10.55-.66,3.41-1.33,6.82-1.91,10.25-.97,5.83-1.74,11.72-1.71,17.64.03,5.56.89,11.11,2.42,16.46Z"/>
  <path class="cls-1" d="M655.43,325.64c-.69-11.14-4.31-22.51-12.1-30.75-2.29-2.41-4.91-4.53-7.77-6.24-10.02-5.99-22.53-6.35-33.54-3.17-11.62,3.34-21.93,10.3-30.43,18.79-9.63,9.64-17.08,21.43-21.73,34.23-4.19,11.53-6.17,24.06-4.48,36.29,1.53,11.09,6.36,22.19,15.23,29.34,9.25,7.46,21.97,9.46,33.42,7.15,11.69-2.33,22.28-8.59,31.1-16.45,10.06-8.94,17.99-20.19,23.33-32.54,4.96-11.49,7.74-24.09,6.97-36.65ZM591.23,386.37c-5.74-1.01-11.1-3.95-15.12-8.16-6.76-7.07-9.31-17.3-8.5-26.87.95-11.13,6.28-21.77,14.45-29.35,7.17-6.66,16.83-11.09,26.74-10.71,5.67.22,11.31,2.06,15.87,5.47,4.34,3.24,7.6,7.85,9.3,12.98.46,1.37.82,2.79,1.05,4.22-1.31-2.81-2.9-5.52-4.94-7.88-5.47-6.38-14.12-9.81-22.48-8.98-8.3.82-15.91,5.3-21.6,11.26-6.3,6.61-10.53,15.26-11.52,24.36-.86,7.92.81,16.4,5.89,22.71,5.39,6.71,14.28,9.94,22.75,9.52,1.15-.05,2.3-.17,3.45-.33-4.82,1.96-10.2,2.67-15.34,1.76ZM637.43,368.03c-3.77,7.48-12.16,13.35-20.79,11.74-.69-.12-1.38-.29-2.02-.55-.64-.25-1.22-.63-1.89-.78-5.29-3.17-10.64-6.27-15.89-9.5-2.4-1.47-4.77-3.1-6.45-5.38-1.5-2.06-2.41-4.51-2.85-7-1.54-9.03,3.55-18.56,11.59-22.75,4.15-2.16,9.2-2.84,13.65-1.22,2.79,1.01,5.22,2.75,7.71,4.33,2.55,1.59,5.15,3.12,7.75,4.64,2.49,1.44,5.06,2.86,7.09,4.93,1.83,1.89,3.11,4.27,3.81,6.79,1.37,4.9.57,10.24-1.71,14.75Z"/>
  <path class="cls-1" d="M632.87,367.4c-3.02,5.06-8.88,9.33-15.03,8.21-5.93-1.08-9.28-7.4-8.97-13.05.34-6.17,4.22-12.2,9.84-14.84,5-2.35,11.82-1.35,14.94,3.53,3.13,4.88,2.06,11.39-.78,16.15Z"/>
  <path class="cls-1" d="M604.54,367.9c-2.07-1.23-4.18-2.39-6.21-3.71-.89-.58-1.75-1.27-2.77-1.61-.48-.16-1.57-.23-1.53-.97-1.44-.92-2.88-2.34-2.78-4.19.12-2.3,2.03-4.04,3.78-5.27-.85,2.58-1.27,5.36-.75,8.05.63-2.42,2.24-4.48,4.19-5.99-.92,2.78-1.04,5.81-.49,8.68.65-2.55,2.27-4.75,4.24-6.44-.93,2.57-1.29,5.36-1.04,8.08.7-2.44,2.27-4.57,4.18-6.2-1.11,3.04-1.53,6.4-.82,9.57Z"/>
  <path class="cls-1" d="M611.26,347.58c-.89.89-1.67,1.88-2.32,2.96-4.6-2.75-9.2-5.51-13.8-8.26.43-.73,1.06-1.34,1.69-1.91.4-.38.86-.75,1.45-.66.76.11,1.29.82,1.87,1.24.63.47,1.34.8,2.02,1.18,3.07,1.74,6.05,3.63,9.09,5.45Z"/>
  <path class="cls-1" d="M622.11,342.6c-1.94.14-3.81.73-5.6,1.47-.45.17-.89.35-1.29.61-.35.23-.64.55-1.07.63-.8.16-1.44-.53-1.99-.98-1.7-1.35-3.7-2.25-5.57-3.32-1.96-1.12-3.87-2.31-5.81-3.48,3.37-1.87,7.8-3.02,11.33-.92,3.34,1.99,6.67,4,10,5.99Z"/>
  <path class="cls-1" d="M724.94,522.43c-2.23,14.54-6.09,28.54-11.38,41.87h-10.65c5.78-13.59,10.02-28.08,12.36-43.34,9-58.87-11.56-115.53-50.53-154.93,1.37-3.4,2.56-6.84,3.56-10.32,7.86,7.56,15.16,15.81,21.75,24.79,30.21,41.1,42.59,91.52,34.89,141.93Z"/>
  <path class="cls-1" d="M620.1,572.98c-1.6.91-3.19,1.8-4.88,2.54-3.16,1.37-6.44,2.58-9.86,3.1-3.5.52-7.05.2-10.53-.26-3.72-.47-7.43-1.05-11.02-2.12-1.75-.52-3.47-1.13-5.23-1.61-.98-.26-1.98-.48-2.95-.8-.79-.26-1.57-.63-2.41-.72-.42-.04-.9-.09-1.29-.24-.53-.19-.33-.42.18-.52.74-.14,1.57.23,2.3.27,1.01.07,2.02.03,3.02.08,4.22.24,8.4.92,12.55,1.67,3.65.64,7.3,1.4,11.01,1.62,3.49.2,6.98-.09,10.42-.66,3.1-.53,6.25-1.22,8.83-3.14.21-.16.87-.76,1.01-.23.13.48-.85.84-1.15,1.02Z"/>
  <path class="cls-1" d="M546.62,585.82c-.83.32-1.81.31-2.69.41-.93.11-1.86.18-2.79.28-8.11.83-16.26,1.39-24.42.95-8.15-.42-16.23-1.81-24.11-3.91-2.06-.56-4.11-1.14-6.15-1.79-2.01-.64-4.01-1.32-5.98-2.08-3.96-1.53-7.8-3.33-11.62-5.14-7.85-3.71-15.5-7.83-22.89-12.36-3.64-2.22-7.37-4.27-11.15-6.26-.42-.22-3.52-2.08-4.25-2.12.65-.22,1.34.05,1.99.23.96.26,1.95.41,2.92.68,2.05.54,3.98,1.46,5.9,2.33,1.96.89,3.93,1.76,5.9,2.63,3.86,1.7,7.74,3.35,11.47,5.29,3.79,1.97,7.39,4.3,11.21,6.2,3.84,1.91,7.9,3.33,11.89,4.87,5.71,2.19,11.48,4.22,17.41,5.73,2.11.55,4.26,1.02,6.41,1.41,4.03.71,8.11,1.05,12.2,1.38,4.24.36,8.48.75,12.75.86,4.13.11,8.26.08,12.39-.13.98-.05,1.98-.17,2.97-.11.45.02,1.69.25.64.65Z"/>
  <path class="cls-1" d="M401.96,555.77c-.59.55-1.22,1.05-1.8,1.64-.64.67-1.3,1.34-1.96,2.02-2.52,2.55-5.11,5.03-7.83,7.36-1.01.87-2.2,1.78-3.43,2.69-.76-1.49-1.53-2.99-2.25-4.51,2.9-1.35,5.63-3.04,8.4-4.65,1.52-.89,3.04-1.77,4.53-2.68,1.32-.81,2.58-1.72,3.91-2.5.13-.07.83-.55,1.01-.39.27.23-.43.87-.58,1.02Z"/>
  <path class="cls-1" d="M437.01,533.48c-.13-.46-1.21-.56-1.54-.65-2.34-.62-4.46-1.89-6.72-2.73-2.44-.92-4.96-1.62-7.49-2.26-4.86-1.22-9.82-2.1-14.82-2.64-2.31-.25-4.64-.32-6.93.07-2.38.42-4.68,1.21-6.9,2.13-4.65,1.92-9.18,4.18-13.53,6.69-1.11.64-2.15,1.37-3.23,2.05-.45.27-.98.61-1.53.75-.08-.33-.15-.66-.24-.99.37-.39.81-.73,1.23-1.07,1.93-1.5,3.67-3.21,5.53-4.79.96-.83,1.94-1.63,2.96-2.38.97-.71,2.05-1.22,3.01-1.93.49-.36,1.54-1.18.5-1.58-.65-.24-1.46-.08-2.12,0-2.43.29-4.88.53-7.28,1.04-2.02.44-3.97,1.1-5.89,1.84-.31-1.47-.63-2.95-.89-4.45.45-.17.89-.36,1.34-.52,7-2.51,14.31-4.24,21.75-4.66,3.8-.23,7.64-.1,11.38.69,3.9.83,7.59,2.37,11.21,4,3.82,1.73,7.58,3.62,11.26,5.64,1.81,1.01,3.65,2.01,5.35,3.2.8.55,1.54,1.2,2.41,1.64.39.19,1.13.38,1.18.91Z"/>
  <path class="cls-1" d="M453.99,453.7c-.02,3.49-2.19,6.21-4.98,8.09-5.49,3.72-12.26,4.92-18.75,5.41-1.77.13-3.58.3-5.35.14-.87-.07-1.68-.34-2.53-.48-.43-.07-1.07-.07-.67.53.32.49,1.14.69,1.64.9.82.34,1.64.65,2.45,1,1.43.61,2.92,1.44,3.61,2.91.68,1.43.4,3.11.14,4.61-.3,1.78-.81,3.46-1.96,4.88-2.17,2.69-5.42,4.23-8.4,5.83-3.29,1.77-6.62,3.47-10.17,4.62-3.42,1.12-6.97,1.78-10.51,2.42-7.86,1.42-15.74,2.76-23.61,4.22-2.07.37-4.13.85-6.19,1.28-.41-10.46.16-21.11,1.8-31.83,1.97-12.91,5.39-25.24,10.04-36.87,2.22,1.12,4.52,2.08,6.88,2.83,3.55,1.12,7.27,1.57,10.83,2.63.27.08,1.35.54,1.37-.05.02-.41-.71-.63-1-.75-1.7-.69-3.25-1.66-4.81-2.62-3.28-2.01-6.73-3.74-9.88-5.96-.42-.3-.91-.65-1.29-1.08.59-1.35,1.2-2.71,1.83-4.04.31-.14.62-.25.91-.34,1.74-.56,3.54-.87,5.33-1.22,1.87-.39,3.71-.88,5.58-1.26,6.79-1.34,13.83-1.23,20.62-.05,7.29,1.27,14.46,3.83,20.43,8.28,3,2.23,5.85,4.78,8.32,7.59,2.28,2.59,4.01,5.61,5.45,8.73,1.38,3,2.89,6.27,2.87,9.65Z"/>
  <path class="cls-1" d="M584.18,437.5c-.25,3.17-.72,6.33-.61,9.52.11,3.15.61,6.27.6,9.42,0,3.23-.41,6.43-.86,9.62-.22,1.54-.42,3.07-.62,4.62-.02.18-.11,1.17-.53,1.01-.25-.09-.25-.72-.27-.92-.26-2.91-.53-5.82-.73-8.74-.23-3.18-.47-6.42-.14-9.6.09-.95.41-1.85.51-2.79.05-.48-.01-1.91-.89-1.51-.62.29-.79,1.5-.9,2.08-.23,1.14-.52,2.24-.93,3.33-1.14,3.08-2.22,6.15-3.02,9.34-1.6,6.37-2.7,12.88-5.29,18.97-1.28,3.02-2.94,5.85-4.07,8.95-.21.57-.41,1.28-.83,1.76-.69.81-.67-.73-.6-1.15.48-2.78,1.43-5.55,2.3-8.23,1.03-3.11,2.13-6.2,2.95-9.36,1.59-6.18,1.99-12.65,4.12-18.7,1.1-3.13,2.66-6.05,3.91-9.13,1.23-3.04,2.09-6.23,2.77-9.44.61-2.91.55-5.9.46-8.85-.02-.77-.04-1.54-.07-2.31-.03-.59-.16-1.25.08-1.81.44-1.02,1.68-.72,2.56-.83-.01,1.64.04,3.28.1,4.92.13,3.27.27,6.55,0,9.83Z"/>
  <path class="cls-1" d="M652.91,529.78c-.17,5.58-.58,11.15-.8,16.72-.11,2.77-.15,5.57-.46,8.32-.28,2.52-.93,4.99-2.53,7.01-2.86,3.6-7.54,5.01-11.75,6.35-1.16.37-2.34.72-3.47,1.2-.3.14-1.5.85-1.74.33-.22-.48,1.05-.98,1.34-1.13,1.15-.62,2.25-1.33,3.4-1.96,4.23-2.33,8.64-4.82,10.36-9.64.88-2.47.98-5.06,1.31-7.62.03-.31.49-2.2-.24-2.07-.45.08-.55,1.26-.6,1.58-.84,4.74-4.39,8.47-8.64,10.45-2.43,1.14-4.99,1.99-7.48,3.01-2.53,1.04-4.98,2.27-7.47,3.39-4.44,2.02-9.12,3.65-14.02,3.99-5.14.37-10.23-.79-15.1-2.29-5.11-1.57-10.14-3.45-15.41-4.43-5.25-.98-10.56-.79-15.87-.61-5.31.18-10.64.61-15.96.53-5.65-.09-11.31-.46-16.97-.67-10.55-.4-21.17-1.05-31.37-3.96-10.47-3-20.22-8.59-26.67-17.56-1.33-1.86-1.53-4.05-.28-6.02,1.25-2,3.51-2.96,5.66-3.69,4.94-1.67,9.94-3.09,15.1-3.9,2.67-.43,5.37-.69,8.07-.84,1.36-.08,2.71-.16,4.08-.16.51,0,2.2.35,2.63-.09.61-.62-.98-.83-1.3-.86-1.12-.1-2.22-.27-3.33-.49-2.7-.56-5.32-1.34-7.89-2.31-10.42-3.91-19.88-10.49-28.35-17.61-2.1-1.76-4.01-3.75-6.12-5.49-.34-.27-.89-.83-1.36-.88-.55-.07-.64.38-.53.82.32,1.27.89,2.53,1.31,3.76.43,1.23.87,2.43,1.47,3.58.57,1.13,1.41,2.1,1.94,3.24.15.33.43.9.05,1.17-.32.23-.78-.11-1.06-.24-1.23-.59-2.52-.99-3.74-1.56-1.88-.87-3.78-1.69-5.56-2.75-2.88-1.72-5.48-4.16-6.81-7.3-.63-1.49-1-3.16-.54-4.74.48-1.66,1.86-2.96,3.44-3.55,1.59-.61,3.49-.54,5.01.22.6.3,3.15,2.68,3.36,1.03.12-.8-.33-1.62-.31-2.43.03-.89.39-1.76.89-2.47,1.05-1.55,2.73-2.55,4.28-3.54,6.2-3.96,13.1-6.94,20.34-8.34,3.75-.73,7.54-.93,11.37-.89.9,0,1.79,0,2.69.08.22.02,1.33.2,1.22-.32-.08-.37-.98-.3-1.26-.3-.7-.01-1.4-.08-2.1-.15-7.81-.72-15.72-1.09-23.54-.39-1.93.16-3.86.39-5.77.7-1.41.22-2.79.65-4.19.89-.35.06-.98.18-.88-.35.09-.5.98-.85,1.38-1.04,1.64-.8,3.26-1.6,4.94-2.3,7.08-3.01,14.55-4.97,22.16-6.05,4.05-.58,8.13-.96,12.2-1.33,3.85-.33,7.73-.54,11.57-.11,7.57.85,14.74,3.84,21.44,7.3,3.52,1.81,7.02,3.93,9.69,6.89,1.28,1.43,2.26,3.06,3.22,4.7.47.83,1.07,1.65,1.35,2.57.16.52.17,1.41.8,1.58-.94-.26-1.75-.86-2.58-1.35-.8-.47-1.63-.9-2.48-1.31-1.79-.86-3.64-1.58-5.46-2.38-1.77-.78-3.51-1.6-5.33-2.25-.75-.27-1.51-.54-2.27-.76-.31-.09-.92-.3-.77.22.15.52,1.39,1.07,1.8,1.33.78.49,1.59.95,2.37,1.43,6.31,4,12.03,9.18,16.79,14.93,2.15,2.61,4.39,5.35,5.51,8.59,1.09,3.13.66,6.52-.71,9.5-1.4,3.07-3.68,5.84-6.88,7.13-1.61.65-3.34.98-5.02,1.41-1.85.47-3.69.98-5.53,1.51-3.46,1-6.92,2.07-10.52,2.54-1.61.2-3.24.31-4.84-.04-.3-.06-1.13-.36-1.36-.02-.28.4.43.69.7.8,1.41.55,2.96.9,4.4,1.34,1.89.57,3.78,1.11,5.68,1.62,3.67.97,7.27,1.49,11.07,1.54,3.76.06,7.51-.19,11.24-.68,3.49-.48,6.97-1.08,10.48-.5,7.56,1.29,13.48,6.87,18.99,11.79,2.91,2.59,5.81,5.29,9.21,7.23,1.71.96,3.54,1.64,5.39,2.26,1.82.61,3.61,1.27,5.45,1.78,3.55,1.01,7.25,1.17,10.92,1.02,1.9-.08,3.81-.2,5.69-.51.81-.13,1.63-.34,2.47-.3.21.01.5.06.76.07-.49-.06-1.03-.36-1.38-.47-1.22-.38-2.53-.29-3.78-.52-1.44-.27-2.83-.81-4.22-1.3-1.34-.48-2.7-.96-3.87-1.79-1.09-.77-1.96-1.79-2.88-2.73s-1.9-1.84-2.81-2.78c-1.79-1.84-3.39-3.86-4.84-5.98-1.39-2.04-2.74-4.16-3.65-6.47-.92-2.33-1.23-4.82-1.7-7.25-.98-5.16-2.48-10.2-3.4-15.37-.44-2.57-.77-5.15-1.01-7.75-.12-1.32-.23-2.63-.24-3.96-.01-.64.01-1.28-.02-1.92-.03-.41-.1-.87.08-1.26-.08.32.27.71.38,1.01.18.48.15,1.02.19,1.53.08,1.16.3,2.31.57,3.43.62,2.51,1.58,4.91,2.54,7.3.99,2.44,1.92,4.91,2.9,7.36,1.83,4.55,4.3,8.78,7.36,12.6,1.64,2.04,3.44,3.93,5.28,5.78.92.93,1.85,1.85,2.76,2.78.4.4,1.06,1.35,1.67,1.52.79.23.15-.9-.05-1.14-.62-.73-1.28-1.31-1.81-2.1-1.41-2.06-2.47-4.36-3.33-6.69-.86-2.3-1.56-4.71-1.89-7.15-.34-2.5-.18-4.99.29-7.45.47-2.52,1.17-4.99,1.77-7.48.62-2.6,1.06-5.22,1.53-7.85.91-5.14,2.43-10.12,4.95-14.72,1.22-2.22,2.61-4.38,4.3-6.26.2-.21.97-.85.79-1.24-.19-.39-.89-.04-1.16.09-.98.44-1.78,1.2-2.66,1.8-2.09,1.41-4.22,2.75-6.05,4.51-.83.81-1.39,1.93-2.31,2.65-.87.66-1.3-.22-1.34-1.04-.05-1.27.05-2.54,0-3.82-.06-1.32-.08-2.65,0-3.96.16-2.51.68-4.98,1.35-7.39,1.46-5.1,3.74-9.92,5.7-14.84,1.87-4.7,3.1-9.63,3.71-14.65.6-4.93.69-9.94.14-14.88-.28-2.51-.73-5.01-1.37-7.46-.3-1.17-.62-2.36-.97-3.52-.12-.39-.92-2.11-.99-.77-.06,1.12.45,2.32.61,3.41.19,1.23.24,2.48.2,3.71-.08,2.52-.5,5.04-1.03,7.5-.57,2.59-1.32,5.12-2,7.69-.36,1.33-.69,2.66-1.02,3.99-.28,1.11-.41,2.51-.96,3.51-.52.92-.97.43-1.05-.38-.11-1.16.02-2.39.05-3.57.08-2.64.14-5.29.23-7.93.09-2.52.19-5.04.17-7.57-.01-1.29-.06-2.57-.15-3.84-.08-1.1-.35-2.21-.36-3.3,0-2.41,2.73-2.93,4.46-3.86,2.28-1.24,4.42-2.68,6.55-4.15,4.29-2.96,8.32-6.29,12.07-9.91,1.88,5.16,3.8,10.32,5.59,15.52,3.49,10.14,6.44,20.48,8.37,31.04.96,5.27,1.79,10.59,2.07,15.94.28,5.33-.08,10.67-.77,15.95-.7,5.45-1.86,10.82-2.53,16.28-.66,5.3-1.07,10.67-.83,16.02.21,5.19.85,10.37.5,15.57-.35,5.32-1.63,10.55-3.15,15.64-.38,1.26-.69,2.56-1.29,3.74-.26.52-.9,1.24-.79,1.87.27,1.45,2.11-1.25,2.34-1.6,2.87-4.5,4.74-9.59,5.76-14.82,1.04-5.29,1.22-10.69,1.37-16.06.07-2.75.11-5.51.3-8.25.05-.72.55-7.19,1.22-7,.66.18.45,2.61.46,3.1.01,1.36.09,2.7.22,4.04.28,2.66.59,5.31.77,7.98.39,5.46.49,10.94.32,16.42Z"/>
  <path class="cls-1" d="M399.62,601.69c-.1,42.23-.2,84.44-.3,126.67-9.29.82-18.59,1.72-27.87,2.69.04-22.5.09-45.01.14-67.51.01-7.6.65-17.14.65-17.14-.27.01-.55.02-.82.03,0,0-1.46,9.57-2.7,17.26-3.8,22.75-7.61,45.72-11.4,68.92-8.33.95-16.65,1.96-24.96,3.04-3.71-22.8-7.43-45.84-11.17-69.15-1.21-7.86-2.64-17.77-2.64-17.78-.27.02-.54.03-.81.04,0,.01.6,9.96.59,17.94-.02,23.62-.05,47.24-.07,70.85-8.65,1.21-17.28,2.47-25.91,3.82v-139.47c13.67-.03,27.35-.06,41.01-.09,3.13,20.64,6.23,41.1,9.34,61.39,1.02,6.76,1.82,18.38,1.82,18.38.27-.02.54-.04.82-.06,0,0,.84-11.73,1.87-18.58,3.17-20.57,6.35-40.96,9.53-61.18,14.3-.02,28.59-.05,42.88-.07Z"/>
  <path class="cls-1" d="M467.92,601.61c-14.91.02-29.82.03-44.72.05-6.31,41.61-12.63,83.67-18.95,126.28,10.25-.87,20.52-1.64,30.8-2.31.76-8.74,1.53-17.48,2.3-26.2,4.87-.24,9.72-.47,14.59-.68.73,8.59,1.47,17.17,2.21,25.74,10.75-.57,21.51-1.05,32.27-1.4-6.19-40.28-12.36-80.74-18.5-121.48ZM439.25,676.61c1.4-14.13,2.79-28.22,4.19-42.29.63-5.45.84-10.9.84-10.9.34,0,.69-.01,1.03-.01,0,0,.4,5.44.8,10.87,1.26,14,2.54,27.98,3.81,41.93-3.56.12-7.12.26-10.67.4Z"/>
  <path class="cls-1" d="M569.52,704.67c-.01-5.91-.01-11.84-.02-17.77-.01-13.32-5.56-22.3-21.38-23.05-1.23-.06-2.46-.13-3.69-.19v-.52c1.02-.06,2.05-.13,3.07-.18,12.33-.67,21.37-6.44,21.35-24.22,0-3.5,0-6.99-.01-10.49-.01-17.78-9.04-26.67-36.73-26.66-13.53,0-27.08,0-40.61.01-.05,40.45-.09,80.88-.14,121.33,10.63-.32,21.25-.54,31.88-.65.01-15.86.02-31.72.02-47.56,2.26-.02,4.52-.03,6.78-.04,5.14-.02,7.61,2.11,7.6,6.54v26.78c0,7.09,1.65,11.53,3.08,14.19,10.63,0,21.26.11,31.89.32v-1.78c-2.68-2.72-3.09-8.06-3.09-16.06ZM537.24,645.58c0,4.43-2.47,6.56-7.6,6.57-2.19,0-4.38.01-6.57.02,0-10.34.01-20.7.01-31.06,2.19,0,4.38,0,6.57-.01,5.13,0,7.59,2.13,7.59,6.57v17.91Z"/>
  <path class="cls-1" d="M657.02,695.05c.04,20.28-6.08,32.97-38.34,31.21-32.48-1.53-38.67-14.38-38.69-34.03-.02-20-.04-40.01-.05-60-.02-19.58,6.11-32.56,38.52-32.59,32.2-.06,38.38,13.36,38.42,33.58.02,4.83.03,9.66.04,14.49-10.54-.29-21.06-.54-31.6-.75-.01-7.17-.03-14.33-.04-21.49-.01-3.62-.83-7.06-6.79-7.1-5.95-.04-6.77,3.37-6.76,6.96.04,24.79.08,49.58.13,74.38,0,3.59.82,7.03,6.78,7.27,5.96.26,6.78-3.13,6.77-6.75-.01-8.24-.03-16.49-.04-24.73,10.54.33,21.07.73,31.61,1.2.01,6.12.02,12.23.04,18.35Z"/>
  <path class="cls-1" d="M725.36,732.84c-20.05-2.32-40.15-4.26-60.27-5.81-.09-41.8-.18-83.58-.27-125.36,20.1.02,40.19.06,60.3.1,0,7.32.02,14.64.04,21.96-9.51-.19-19-.37-28.5-.54.02,9.8.04,19.59.06,29.39,9.09.35,18.17.75,27.27,1.17,0,7.71.03,15.4.04,23.11-9.08-.61-18.17-1.16-27.26-1.68.02,10.8.05,21.59.07,32.4,9.5.76,19,1.6,28.48,2.51.01,7.59.03,15.17.04,22.75Z"/>
  <path class="cls-1" d="M788.28,717.16v24.21c-18.75-2.92-37.54-5.51-56.37-7.76-.07-43.95-.16-87.89-.24-131.83,10.6.02,21.2.04,31.8.06.03,37.44.07,74.87.1,112.3,8.24.96,16.48,1.96,24.71,3.02Z"/>
  <g>
    <g>
      <path class="cls-1" d="M389.07,844.01c0-26.45,0-52.9,0-79.35,13.74-1.24,27.47-2.35,41.22-3.36,2.8-.19,5.22.71,7.25,2.71,2.03,2,3.05,4.51,3.05,7.49,0,12.81.02,25.62.03,38.43,0,2.09-.52,4.03-1.57,5.79-1.05,1.76-2.48,3.09-4.28,3.97,2.4,9.68,3.6,14.54,5.99,24.31h-17.98c-2.33-9.19-3.49-13.76-5.82-22.86-4.16.09-6.24.14-10.4.23,0,9.05,0,13.57,0,22.62-6.99,0-10.49,0-17.49,0ZM406.54,805.19c6.66-.27,9.99-.39,16.65-.62,0-10.52,0-15.79-.02-26.31-6.66.39-9.99.6-16.64,1.04,0,10.36,0,15.54.01,25.9Z"/>
      <path class="cls-1" d="M448.66,844.01c4.7-23.32,9.36-46.64,14-69.96-1.27-5.8-1.9-8.7-3.17-14.48,12.86-.64,19.3-.9,32.17-1.28,5.37,28.57,10.72,57.14,16.04,85.72-7.02,0-10.53,0-17.54,0-1.15-6.86-1.73-10.28-2.89-17.13-7.19.05-10.79.07-17.99.14-1.19,6.81-1.79,10.21-2.98,16.99h-17.65ZM472.21,810.04c4.94-.08,7.41-.12,12.34-.19-2.22-13.66-3.33-20.47-5.56-34.06-.33.01-.5.02-.83.03-2.38,13.72-3.57,20.57-5.96,34.22Z"/>
      <path class="cls-1" d="M525.91,844.01c-2.84,0-5.28-1.1-7.31-3.31-2.03-2.2-3.04-4.83-3.05-7.88,0-4.84,0-7.25,0-12.09,7-1.76,10.49-2.64,17.49-4.38,0,4.15,0,6.22,0,10.37,5.07,0,7.6,0,12.67,0,0-5.86,0-8.79,0-14.64-9.52-4.43-14.28-6.63-23.81-10.99-1.92-.87-3.46-2.23-4.62-4.06-1.16-1.84-1.75-3.88-1.75-6.12,0-8.76,0-13.14,0-21.89,0-3.09,1.01-5.75,3.04-7.98,2.03-2.23,4.47-3.36,7.31-3.39,10.79-.09,16.19-.09,26.98,0,2.81.02,5.23,1.16,7.28,3.39,2.05,2.23,3.07,4.89,3.07,7.98,0,4.81,0,7.22,0,12.03-7,1.65-10.5,2.5-17.5,4.21,0-4.15,0-6.22,0-10.36-5.07-.02-7.61-.02-12.68,0,0,4.84,0,7.27,0,12.11,9.52,4.36,14.29,6.58,23.81,11.01,1.92.9,3.46,2.27,4.62,4.12,1.16,1.85,1.74,3.9,1.74,6.15,0,9.82,0,14.72,0,24.54,0,3.05-1.02,5.67-3.05,7.88-2.03,2.21-4.47,3.31-7.3,3.31h-26.95Z"/>
      <path class="cls-1" d="M650.8,844.01c0-10.88.01-16.33.02-27.21-7.04-18.83-13.95-37.71-20.82-56.61,7.48.43,11.22.66,18.7,1.18,3.57,11.74,7.18,23.48,10.82,35.21,4.32-13.58,6.48-20.3,10.8-33.57,7.47.62,11.2.95,18.67,1.65-7.06,17.48-14,35.01-20.85,52.57,0,10.71,0,16.07-.01,26.78h-17.32Z"/>
      <path class="cls-1" d="M584.79,844.01c-2.84,0-5.27-1.1-7.3-3.3-2.03-2.2-3.04-4.82-3.04-7.86,0-4.82,0-7.24,0-12.06,7-1.69,10.5-2.52,17.49-4.16,0,4.1,0,6.16,0,10.26,5.07.03,7.6.05,12.67.09,0-5.77,0-8.65,0-14.42-9.52-4.49-14.27-6.75-23.79-11.26-1.92-.9-3.46-2.28-4.62-4.13-1.16-1.85-1.74-3.9-1.74-6.14,0-8.73,0-13.1,0-21.84,0-3.08,1.02-5.7,3.05-7.85,2.03-2.15,4.47-3.19,7.31-3.1,10.79.31,16.18.51,26.96,1,2.81.13,5.23,1.33,7.28,3.59,2.05,2.26,3.07,4.89,3.07,7.91,0,4.7,0,7.05,0,11.75-7,1.43-10.5,2.16-17.49,3.67,0-4.08,0-6.12,0-10.2-5.07-.17-7.61-.24-12.68-.38,0,4.8,0,7.19,0,11.99,9.52,4.55,14.28,6.84,23.79,11.37,1.92.92,3.46,2.29,4.62,4.12s1.74,3.84,1.74,6.04c0,9.59-.01,14.38-.02,23.97,0,2.98-1.02,5.54-3.05,7.69-2.03,2.15-4.47,3.24-7.31,3.24-10.78,0-16.17,0-26.95,0Z"/>
    </g>
    <path class="cls-1" d="M272.83,804.13c34.46-2.05,68.93-3.7,103.41-4.96v9.94c-34.48-1.27-68.96-2.92-103.41-4.97Z"/>
    <path class="cls-1" d="M807.17,804.13c-40.75,2.44-81.54,4.32-122.35,5.63,1.47-3.73,2.94-7.44,4.4-11.13,39.33,1.31,78.66,3.14,117.95,5.5Z"/>
  </g>
</svg>