<?xml version="1.0" encoding="UTF-8"?>
<svg id="Camada_1" data-name="Camada 1" xmlns="http://www.w3.org/2000/svg" viewBox="0 0 1080 1080">
  <defs>
    <style>
      .cls-1 {
        fill: #dc1d40;
      }

      .cls-2 {
        fill: #082045;
      }

      .cls-3 {
        fill: #f0efeb;
      }
    </style>
  </defs>
  <rect class="cls-3" width="1080" height="1080"/>
  <g>
    <g>
      <path class="cls-2" d="M529.34,626.96c-2.19.01-4.38.01-6.57.01,0,10.36-.01,20.71-.01,31.06,2.19-.01,4.38-.02,6.57-.02,5.13-.01,7.6-2.14,7.6-6.57v-17.91c0-4.44-2.46-6.56-7.59-6.56ZM529.34,626.96c-2.19.01-4.38.01-6.57.01,0,10.36-.01,20.71-.01,31.06,2.19-.01,4.38-.02,6.57-.02,5.13-.01,7.6-2.14,7.6-6.57v-17.91c0-4.44-2.46-6.56-7.59-6.56ZM445.8,640.14c-.4-5.43-.8-10.87-.8-10.87-.34,0-.69.01-1.03.01,0,0-.21,5.45-.84,10.9-1.4,14.07-2.79,28.16-4.19,42.29,3.55-.14,7.11-.27,10.67-.39-1.27-13.96-2.55-27.93-3.81-41.93ZM529.34,626.96c-2.19.01-4.38.01-6.57.01,0,10.36-.01,20.71-.01,31.06,2.19-.01,4.38-.02,6.57-.02,5.13-.01,7.6-2.14,7.6-6.57v-17.91c0-4.44-2.46-6.56-7.59-6.56ZM529.34,626.96c-2.19.01-4.38.01-6.57.01,0,10.36-.01,20.71-.01,31.06,2.19-.01,4.38-.02,6.57-.02,5.13-.01,7.6-2.14,7.6-6.57v-17.91c0-4.44-2.46-6.56-7.59-6.56ZM445.8,640.14c-.4-5.43-.8-10.87-.8-10.87-.34,0-.69.01-1.03.01,0,0-.21,5.45-.84,10.9-1.4,14.07-2.79,28.16-4.19,42.29,3.55-.14,7.11-.27,10.67-.39-1.27-13.96-2.55-27.93-3.81-41.93ZM445.8,640.14c-.4-5.43-.8-10.87-.8-10.87-.34,0-.69.01-1.03.01,0,0-.21,5.45-.84,10.9-1.4,14.07-2.79,28.16-4.19,42.29,3.55-.14,7.11-.27,10.67-.39-1.27-13.96-2.55-27.93-3.81-41.93ZM529.34,626.96c-2.19.01-4.38.01-6.57.01,0,10.36-.01,20.71-.01,31.06,2.19-.01,4.38-.02,6.57-.02,5.13-.01,7.6-2.14,7.6-6.57v-17.91c0-4.44-2.46-6.56-7.59-6.56ZM529.34,626.96c-2.19.01-4.38.01-6.57.01,0,10.36-.01,20.71-.01,31.06,2.19-.01,4.38-.02,6.57-.02,5.13-.01,7.6-2.14,7.6-6.57v-17.91c0-4.44-2.46-6.56-7.59-6.56ZM445.8,640.14c-.4-5.43-.8-10.87-.8-10.87-.34,0-.69.01-1.03.01,0,0-.21,5.45-.84,10.9-1.4,14.07-2.79,28.16-4.19,42.29,3.55-.14,7.11-.27,10.67-.39-1.27-13.96-2.55-27.93-3.81-41.93ZM445.8,640.14c-.4-5.43-.8-10.87-.8-10.87-.34,0-.69.01-1.03.01,0,0-.21,5.45-.84,10.9-1.4,14.07-2.79,28.16-4.19,42.29,3.55-.14,7.11-.27,10.67-.39-1.27-13.96-2.55-27.93-3.81-41.93ZM529.34,626.96c-2.19.01-4.38.01-6.57.01,0,10.36-.01,20.71-.01,31.06,2.19-.01,4.38-.02,6.57-.02,5.13-.01,7.6-2.14,7.6-6.57v-17.91c0-4.44-2.46-6.56-7.59-6.56ZM529.34,626.96c-2.19.01-4.38.01-6.57.01,0,10.36-.01,20.71-.01,31.06,2.19-.01,4.38-.02,6.57-.02,5.13-.01,7.6-2.14,7.6-6.57v-17.91c0-4.44-2.46-6.56-7.59-6.56ZM445.8,640.14c-.4-5.43-.8-10.87-.8-10.87-.34,0-.69.01-1.03.01,0,0-.21,5.45-.84,10.9-1.4,14.07-2.79,28.16-4.19,42.29,3.55-.14,7.11-.27,10.67-.39-1.27-13.96-2.55-27.93-3.81-41.93ZM790.51,703.34c-2.47-.32-4.94-.64-7.41-.94l-.1-114.52-46.48-17.72c4.35-12.41,7.61-25.29,9.65-38.57,8.59-56.17-5.21-112.34-38.87-158.13-10.34-14.1-22.2-26.67-35.28-37.6.19-7.14-.38-14.17-1.75-21-2.14-10.54-6.08-20.18-11.69-28.66-3.29-4.92-7.02-9.31-11.12-13.04-4.66-4.23-9.8-7.5-14.21-10.16l-3.96-2.42c-2.94-1.82-6.59-4.08-10.34-6.08-5.29-2.83-10.79-5-16.39-6.45-2.78-.71-5.8-1.42-8.99-1.68-.67-.07-1.36-.1-2.44-.13h-.28c-.14-.06-.28-.14-.39-.22-4.25-2.78-9.24-5.97-14.69-8.67-9.79-4.88-20.88-7.38-31.83-7.21-10.12.14-20.31,2.39-30.28,6.67-9.63,4.14-18.58,9.98-26.63,17.4-8.28,7.62-15.3,16.63-20.82,26.73-.63,1.13-1.21,2.28-1.77,3.42-.09.16-.17.32-.25.5-2.71,5.46-4.88,11.09-6.55,16.85-.05.02-.11.04-.16.07-.21.65-.43,1.28-.61,1.94-2.1,7.59-3.19,15.43-3.19,23.29v.11s.04-.03.05-.03c0,.35-.01.7-.01,1.05.01,3.06.15,6.13.42,9.18.02.17.03.33.05.51,0,0-.02,0-.02.02.4,4.23,1.03,8.42,2.11,12.55,1.99,7.6,5.1,14.93,9.41,21.51-6.03-5.49-10.67-12.58-13.81-20.38-.77-1.94-1.46-3.94-2.07-6-.45-1.61-.81-3.21-1.16-4.77-28.09,15.46-51.92,38.22-68.57,66.14,4.87-1.13,9.96-2.23,15.26-2.91,5.46-.72,11.06-.92,16.59-.56,5.53.35,11.04,1.29,16.4,2.78,5.33,1.47,10.71,3.66,15.46,6.31,4.81,2.64,9.13,5.5,13.45,8.54,4.27,3.02,8.55,6.45,12.36,9.96,6.77,6.3,13.2,13.37,18.29,21.47,2.08-.27,4.08-.39,5.94-.67,2.99-.25,6.24-.63,9.58-.8,3.32-.23,6.86-.03,10.29.43,3.42.48,6.75,1.27,9.96,2.29,3.2,1.11,6.27,2.47,9.18,3.94,2.89,1.53,5.66,2.91,8.47,4.7,2.78,1.75,5.5,3.76,7.84,6.06,2.27,2.41,4.38,4.87,5.86,7.75-3.96-4.9-9.14-8.73-14.85-11.39-5.72-2.6-11.5-5.18-17.61-6.74-6.09-1.61-12.45-2.16-18.72-1.61-3.14.24-6.25.69-9.38,1.02-3.13.39-6.28.54-9.37,1.14h-.02c-2.61-4.31-5.66-8.32-9-12.08-3.36-3.75-7.01-7.25-10.79-10.57-7.54-6.67-15.93-12.36-24.78-17.15-8.88-4.77-18.89-7.27-28.95-7.77-10.08-.6-20.1,1.32-29.82,3.84l-7.53,2.68c-8.47,16.68-14.46,34.96-17.44,54.44-5.36,35.02-.21,69.24,13.03,99.52-3.12-.84-6.61-1.37-10.59-1.39h-.79c-12.52-31.27-16.56-65.44-11.33-99.61,9.51-62.18,48.18-112.8,99.96-140.1-.11-1.16-.2-2.33-.3-3.49-.52-6.94-.04-14.23,1.3-21.2-63.22,28.78-111.23,87.84-122.5,161.49-5.37,35.16-1.98,70.3,9.55,102.91l-62.9,17.79v182.44l22.91-3.56c8.56-1.34,17.17-2.6,25.59-3.77l6.98-.97,6.95-.9c8.15-1.06,16.45-2.08,24.65-3l6.92-.8,7.04-.74c9.11-.97,18.37-1.85,27.54-2.66l3.84-.33,1.01-.09c10.07-.85,20.3-1.62,30.42-2.28l9.43-.62,9.45-.51c10.63-.57,21.36-1.03,31.88-1.4l3.9-.13.96-.02c10.43-.32,21.03-.54,31.49-.64l8.65-.09h8.63c10.41,0,21,.1,31.49.31l20.32.41v-.98c7.16,2.41,15.53,3.83,25.13,4.29,2.32.13,4.58.19,6.71.19,7.89,0,14.84-.87,20.91-2.62v1.75l18.28,1.42c19.77,1.54,39.81,3.47,59.52,5.74l1.92.22,4.55.55c18.5,2.2,37.24,4.78,55.69,7.66l22.89,3.56v-64.82l-17.3-2.24ZM577.63,258.9c2.82-.39,5.67-.62,8.54-.64,9.65-.07,19.38,2.29,27.75,7.13-5.04-1.33-10.29-1.71-15.48-1.66-8.71.09-17.37,1.77-25.48,4.92-2.1.82-4.22,1.7-6.13,2.92-.75.48-1.51,1.15-2.43,1.25-1.09.12-1.97-.69-2.79-1.29-.94-.71-1.98-1.25-2.97-1.89-.93-.6-1.82-1.41-2.93-1.65-1.84-.39-3.3,1.05-4.75,1.91,2.95,1.76,5.91,3.53,8.86,5.3-.86.58-1.73,1.15-2.58,1.76-.72.53-1.41,1.15-2.21,1.54-1.49.7-2.77-.25-3.97-1.04-1.53-1-3.17-1.8-4.66-2.83-.53-.36-1.09-.8-1.77-.7-.71.11-1.2.72-1.71,1.17-2.54,2.33-5.53,4.13-8.23,6.28-5.68,4.53-10.87,9.7-15.77,15.07,2.95-4.95,6.64-9.41,10.66-13.52,6.59-6.77,14.23-12.56,22.65-16.86,7.89-4.02,16.55-6.67,25.42-7.17ZM532.41,243.42c5.37-1.06,10.84-1.69,16.32-1.55,5.42.13,10.95,1.06,15.79,3.65-3.33-.42-6.69-.54-10.03-.51-5.67.05-11.37.6-16.87,2.03-1.39.36-2.75.78-4.1,1.25-.68.24-1.33.51-1.96.85-.5.26-.99.54-1.58.53-1.09-.03-1.98-.88-2.84-1.46-1.31-.87-2.7-1.62-4.06-2.43,3.04-1.01,6.18-1.76,9.32-2.38ZM517,248.38c.76-.46,1.57-1.18,2.53-1,.56.1.97.52,1.42.83.6.43,1.24.78,1.88,1.14,1.22.7,2.41,1.44,3.61,2.16-1.19.63-2.42,1.21-3.59,1.9-.82.49-1.63.95-2.61.69-1.19-.32-2.15-1.23-3.17-1.91-1.16-.77-2.38-1.46-3.57-2.16,1.16-.56,2.39-.99,3.5-1.65ZM473.01,337.45c.35,7.58,1.71,15.07,3.35,22.47-3.1-5.43-5.12-11.45-6.17-17.59.62,4.93,1.6,9.8,2.67,14.65-2.36-4.12-4.08-8.59-5.24-13.19-3.79-15-1.58-31.47,6.24-44.84-2.21,9.52-4.2,19.17-4.42,28.98-.01.19,0,.38,0,.59.57-9.32,3.2-18.56,7.92-26.64-1.01,4.37-2.03,8.74-2.81,13.15-1.28,7.39-1.88,14.92-1.54,22.42ZM481.72,317.04c-2.44,9.34-3.43,19.05-2.77,28.68-.14-1.08-.26-2.16-.35-3.26-.77-8.56-.21-17.22,1.64-25.6,1.97-8.93,5.37-17.54,9.9-25.47,4.55-7.96,10.26-15.27,16.92-21.56,6.29-5.94,13.46-10.95,21.27-14.67,7.45-3.54,15.5-5.87,23.74-6.56,6.38-.47,12.86.05,19.01,1.84-1.23-.15-2.47-.26-3.7-.35-9.23-.64-18.56.62-27.37,3.43-9.04,2.9-17.53,7.46-25.05,13.25-8.04,6.19-14.97,13.79-20.57,22.24-5.68,8.58-10.05,18.06-12.66,28.03ZM509.16,364.73c.61,7.37,1.97,14.72,4.25,21.76-3.99-6.08-6.2-13.17-7.34-20.32.72,6.19,1.97,12.33,3.89,18.26-3.91-5.94-6.11-12.84-7.27-19.82.73,6.03,1.96,11.99,3.83,17.77-2.18-3.33-3.81-7-5.06-10.77-4.12-12.46-4.2-26.13-.74-38.76,1.51-5.45,3.69-10.75,6.75-15.52-2.97,9.56-4.98,19.46-5.44,29.47.87-9.64,3.63-19.23,8.88-27.42-3.01,9.67-5.03,19.7-5.46,29.84.83-9.76,3.61-19.48,8.92-27.77-.79,2.53-1.52,5.09-2.15,7.67-2.14,8.63-3.38,17.49-3.41,26.39.29-11.17,3.08-22.45,9.14-31.91-1.52,4.85-2.81,9.79-3.76,14.81-3.14,16.63-2.41,34.1,2.81,50.25-4.68-7.11-6.95-15.52-7.84-23.91ZM457.71,497.92c.11-.8-.33-1.62-.31-2.43.03-.89.39-1.76.89-2.48,1.05-1.55,2.73-2.55,4.28-3.54,6.2-3.95,13.1-6.94,20.34-8.33,3.75-.73,7.54-.93,11.37-.89.9,0,1.79,0,2.69.08.22.02,1.34.19,1.22-.32-.08-.37-.98-.3-1.26-.3-.7-.01-1.4-.08-2.09-.14-7.81-.73-15.72-1.09-23.54-.39-1.93.16-3.85.39-5.76.7-1.42.22-2.79.65-4.19.89-.35.06-.98.18-.88-.34.08-.51.97-.85,1.38-1.04,1.64-.8,3.26-1.6,4.94-2.31,7.08-3,14.55-4.97,22.16-6.05,4.06-.58,8.13-.96,12.21-1.32,3.84-.33,7.73-.55,11.57-.11,7.57.85,14.74,3.83,21.44,7.3,3.52,1.81,7.02,3.92,9.69,6.89,1.27,1.43,2.26,3.05,3.22,4.7.48.83,1.07,1.65,1.36,2.57.15.52.16,1.41.8,1.58-.94-.26-1.75-.86-2.58-1.36-.81-.47-1.64-.9-2.49-1.3-1.79-.86-3.64-1.58-5.46-2.38-1.77-.79-3.51-1.61-5.33-2.26-.75-.27-1.51-.54-2.27-.76-.31-.09-.92-.3-.77.22.15.52,1.39,1.06,1.8,1.32.78.5,1.59.95,2.37,1.44,6.31,3.99,12.04,9.17,16.79,14.93,2.15,2.61,4.39,5.35,5.51,8.59,1.09,3.14.66,6.52-.71,9.5-1.41,3.07-3.68,5.85-6.88,7.13-1.62.66-3.35.98-5.03,1.42-1.85.47-3.69.98-5.52,1.51-3.47,1-6.93,2.07-10.53,2.54-1.61.2-3.24.31-4.83-.04-.3-.06-1.13-.35-1.37-.02-.27.4.43.7.71.8,1.41.56,2.95.9,4.4,1.35,1.88.57,3.77,1.11,5.67,1.62,3.67.97,7.27,1.49,11.07,1.54,3.76.06,7.5-.18,11.24-.68,3.49-.48,6.97-1.08,10.48-.5,7.57,1.28,13.48,6.87,18.99,11.78,2.91,2.59,5.81,5.29,9.21,7.23,1.71.96,3.54,1.64,5.39,2.27,1.81.61,3.6,1.26,5.44,1.78,3.55,1.01,7.25,1.16,10.92,1.02,1.9-.08,3.81-.2,5.69-.52.81-.13,1.63-.33,2.47-.3.21.01.5.06.76.07-.49-.06-1.03-.35-1.38-.47-1.22-.38-2.54-.29-3.78-.52-1.45-.27-2.83-.82-4.22-1.3-1.35-.48-2.7-.96-3.87-1.79-1.09-.77-1.96-1.79-2.88-2.73-.92-.94-1.9-1.84-2.81-2.78-1.79-1.84-3.39-3.85-4.83-5.98-1.4-2.04-2.74-4.16-3.65-6.47-.92-2.33-1.23-4.81-1.7-7.25-.98-5.16-2.48-10.19-3.4-15.36-.45-2.57-.77-5.16-1.01-7.76-.12-1.31-.23-2.63-.24-3.95-.01-.64.01-1.28-.02-1.92-.03-.41-.1-.87.08-1.26-.08.32.27.72.38,1.01.17.49.14,1.02.18,1.54.08,1.15.3,2.31.58,3.43.62,2.51,1.58,4.91,2.54,7.29.99,2.45,1.92,4.92,2.9,7.36,1.83,4.55,4.3,8.78,7.35,12.6,1.64,2.04,3.44,3.93,5.28,5.79.92.92,1.85,1.84,2.76,2.77.4.4,1.06,1.36,1.67,1.53.8.22.15-.9-.05-1.14-.62-.73-1.27-1.31-1.81-2.1-1.41-2.05-2.47-4.36-3.33-6.69-.86-2.31-1.56-4.71-1.89-7.15-.33-2.5-.17-4.99.29-7.45.48-2.52,1.17-4.99,1.77-7.47.62-2.6,1.06-5.22,1.53-7.85.91-5.15,2.44-10.12,4.96-14.73,1.21-2.21,2.61-4.38,4.3-6.26.2-.21.97-.85.79-1.23-.19-.39-.89-.04-1.16.08-.98.45-1.78,1.2-2.66,1.8-2.08,1.42-4.22,2.75-6.05,4.51-.83.81-1.39,1.93-2.31,2.65-.87.67-1.3-.21-1.35-1.03-.05-1.27.05-2.55,0-3.82-.06-1.32-.08-2.65,0-3.96.16-2.51.68-4.98,1.36-7.38,1.46-5.11,3.74-9.92,5.69-14.85,1.87-4.69,3.1-9.63,3.71-14.64.6-4.94.69-9.94.14-14.88-.28-2.52-.73-5.02-1.37-7.46-.3-1.17-.63-2.36-.97-3.52-.12-.39-.92-2.11-.99-.77-.06,1.11.45,2.32.61,3.41.19,1.23.24,2.48.2,3.71-.08,2.52-.51,5.04-1.03,7.49-.57,2.59-1.32,5.13-2,7.7-.35,1.32-.69,2.66-1.02,3.98-.27,1.11-.4,2.51-.96,3.51-.52.92-.96.43-1.04-.37-.11-1.16.02-2.4.05-3.57.07-2.64.13-5.29.22-7.93.09-2.53.19-5.05.17-7.58-.01-1.28-.06-2.57-.15-3.84-.08-1.09-.34-2.2-.35-3.3,0-2.41,2.73-2.93,4.46-3.86,2.28-1.23,4.42-2.68,6.54-4.15,4.29-2.96,8.32-6.29,12.08-9.91,1.88,5.16,3.79,10.33,5.58,15.52,3.5,10.13,6.44,20.48,8.37,31.04.96,5.27,1.79,10.59,2.07,15.94.27,5.33-.08,10.67-.77,15.95-.71,5.45-1.86,10.82-2.54,16.28-.66,5.3-1.06,10.67-.83,16.02.21,5.19.85,10.37.51,15.57-.35,5.32-1.63,10.55-3.16,15.65-.37,1.25-.69,2.56-1.28,3.73-.26.53-.9,1.24-.79,1.87.26,1.46,2.1-1.24,2.34-1.6,2.87-4.5,4.74-9.59,5.76-14.82,1.03-5.29,1.21-10.69,1.37-16.06.07-2.75.11-5.51.3-8.25.05-.72.55-7.19,1.21-7,.67.18.46,2.61.47,3.09.01,1.37.09,2.7.22,4.05.27,2.66.59,5.31.77,7.98.38,5.46.49,10.94.31,16.41-.17,5.58-.58,11.16-.8,16.73-.11,2.77-.15,5.56-.46,8.31-.28,2.52-.93,5-2.53,7.01-2.86,3.6-7.54,5.02-11.75,6.35-1.16.37-2.35.72-3.47,1.2-.3.14-1.51.85-1.74.33-.22-.49,1.04-.98,1.34-1.13,1.15-.63,2.26-1.34,3.4-1.96,4.24-2.33,8.65-4.82,10.37-9.64.88-2.47.98-5.06,1.3-7.63.03-.3.5-2.19-.24-2.06-.45.08-.55,1.25-.6,1.58-.84,4.74-4.39,8.47-8.64,10.45-2.43,1.14-5,1.99-7.48,3.01-2.53,1.04-4.98,2.27-7.46,3.39-4.44,2.02-9.12,3.65-14.03,3.99-5.14.36-10.23-.8-15.1-2.3-5.11-1.57-10.13-3.45-15.4-4.43-5.25-.98-10.56-.79-15.87-.61-5.31.18-10.64.61-15.96.53-5.65-.09-11.32-.46-16.97-.67-10.55-.4-21.17-1.05-31.37-3.96-10.47-2.99-20.22-8.59-26.67-17.56-1.33-1.86-1.53-4.05-.28-6.02,1.25-2,3.51-2.96,5.66-3.69,4.94-1.67,9.94-3.08,15.1-3.9,2.67-.42,5.37-.69,8.07-.84,1.36-.08,2.71-.15,4.08-.15.52,0,2.2.34,2.63-.09.62-.63-.98-.83-1.29-.86-1.12-.1-2.23-.27-3.33-.5-2.7-.56-5.32-1.34-7.9-2.31-10.42-3.91-19.87-10.49-28.35-17.61-2.09-1.76-4.01-3.75-6.12-5.49-.33-.27-.89-.83-1.36-.88-.56-.07-.65.37-.54.82.32,1.26.89,2.53,1.31,3.76.42,1.22.87,2.43,1.47,3.58.58,1.12,1.42,2.09,1.94,3.24.15.33.43.9.05,1.17-.32.22-.78-.11-1.06-.24-1.22-.59-2.52-.99-3.74-1.56-1.88-.87-3.77-1.69-5.55-2.75-2.88-1.72-5.48-4.17-6.82-7.3-.63-1.49-1-3.16-.54-4.74.48-1.66,1.86-2.95,3.44-3.55,1.59-.61,3.49-.54,5.01.22.61.3,3.16,2.68,3.37,1.03ZM581.2,433.56c-.02-.77-.04-1.54-.07-2.31-.03-.59-.16-1.25.08-1.81.43-1.02,1.68-.72,2.56-.83-.01,1.64.04,3.28.1,4.92.12,3.28.26,6.55,0,9.83-.25,3.18-.73,6.33-.62,9.53.11,3.15.62,6.27.61,9.42,0,3.23-.41,6.43-.86,9.62-.22,1.54-.42,3.07-.63,4.62-.02.18-.11,1.17-.53,1.01-.25-.09-.25-.72-.27-.92-.25-2.91-.53-5.83-.73-8.74-.23-3.19-.47-6.42-.14-9.61.09-.94.41-1.84.52-2.78.05-.49-.01-1.91-.89-1.52-.63.29-.79,1.51-.9,2.08-.23,1.14-.53,2.24-.93,3.33-1.14,3.08-2.23,6.15-3.02,9.35-1.6,6.37-2.7,12.87-5.29,18.96-1.28,3.02-2.94,5.86-4.07,8.95-.21.58-.41,1.28-.83,1.76-.7.81-.68-.73-.61-1.14.49-2.78,1.44-5.55,2.31-8.23,1.02-3.12,2.12-6.2,2.94-9.37,1.6-6.18,1.99-12.64,4.13-18.7,1.09-3.13,2.66-6.05,3.9-9.12,1.23-3.04,2.09-6.23,2.77-9.45.61-2.9.56-5.9.47-8.85ZM581.29,297.43c-1.21.93-2.5,1.77-3.65,2.78-.78.68-1.53,1.39-2.62.95-1.41-.57-2.65-1.57-3.93-2.35-1.38-.83-2.75-1.66-4.13-2.48,1.83-1.4,3.66-2.79,5.5-4.19,2.94,1.76,5.89,3.52,8.83,5.28ZM577.22,289.34c3.32-1.68,6.8-3,10.33-4.16,10.35-3.37,22.42-5.51,32.42.05-2.82-.31-5.68-.16-8.51.16-9.01,1.02-17.72,4.31-25.27,9.3-2.99-1.79-5.98-3.57-8.97-5.36ZM571.28,310.13c8.5-8.49,18.81-15.44,30.43-18.79,11-3.18,23.51-2.81,33.54,3.18,2.86,1.71,5.48,3.82,7.77,6.24,7.79,8.23,11.41,19.61,12.1,30.75.78,12.56-2,25.16-6.97,36.65-5.34,12.35-13.27,23.6-23.32,32.54-8.83,7.86-19.42,14.12-31.1,16.46-11.46,2.31-24.17.3-33.43-7.15-8.87-7.15-13.69-18.26-15.23-29.34-1.69-12.23.29-24.76,4.48-36.29,4.65-12.8,12.11-24.6,21.73-34.24ZM368.4,505.92c-.4-10.46.16-21.11,1.8-31.83,1.97-12.92,5.39-25.24,10.04-36.87,2.21,1.12,4.52,2.08,6.88,2.83,3.55,1.12,7.27,1.57,10.83,2.63.27.08,1.35.54,1.37-.05.02-.4-.71-.63-1-.75-1.7-.69-3.25-1.66-4.8-2.62-3.28-2.01-6.74-3.74-9.88-5.96-.42-.3-.91-.66-1.29-1.08.6-1.36,1.2-2.71,1.83-4.05.31-.13.63-.24.91-.33,1.74-.57,3.54-.87,5.33-1.22,1.87-.38,3.71-.88,5.58-1.25,6.79-1.35,13.83-1.23,20.62-.05,7.29,1.26,14.46,3.82,20.43,8.27,2.99,2.24,5.85,4.78,8.31,7.6,2.29,2.59,4.02,5.6,5.45,8.73,1.39,3,2.89,6.27,2.87,9.65-.02,3.49-2.18,6.21-4.98,8.09-5.49,3.72-12.26,4.92-18.75,5.41-1.77.13-3.58.3-5.35.14-.87-.07-1.68-.34-2.53-.49-.43-.07-1.07-.07-.68.54.32.49,1.14.69,1.65.9.82.33,1.64.65,2.45,1,1.43.61,2.92,1.44,3.61,2.9.68,1.44.39,3.12.14,4.61-.3,1.78-.81,3.46-1.96,4.88-2.17,2.69-5.42,4.23-8.4,5.83-3.29,1.77-6.61,3.47-10.16,4.62-3.42,1.12-6.97,1.78-10.51,2.42-7.87,1.42-15.75,2.76-23.62,4.22-2.07.37-4.13.85-6.19,1.28ZM399.01,734.22c-9.29.82-18.59,1.72-27.87,2.69.04-22.5.09-45.01.14-67.51.01-7.61.65-17.14.65-17.14-.27.01-.55.02-.82.03,0,0-1.46,9.57-2.7,17.26-3.8,22.75-7.61,45.71-11.4,68.92-8.33.95-16.65,1.96-24.96,3.04-3.71-22.81-7.43-45.85-11.17-69.15-1.21-7.87-2.64-17.77-2.64-17.78-.27.02-.55.03-.82.04,0,.01.61,9.95.6,17.93-.02,23.63-.05,47.24-.07,70.86-8.65,1.2-17.28,2.47-25.91,3.81v-139.47c13.67-.03,27.35-.06,41.01-.09,3.13,20.64,6.23,41.1,9.34,61.39,1.02,6.77,1.82,18.39,1.82,18.39.27-.02.55-.04.82-.06,0,0,.84-11.73,1.87-18.58,3.18-20.57,6.35-40.96,9.54-61.19,14.29-.02,28.58-.04,42.87-.06-.1,42.23-.19,84.44-.29,126.67ZM401.65,561.63c-.6.56-1.22,1.05-1.8,1.64-.65.68-1.3,1.35-1.96,2.02-2.52,2.55-5.11,5.03-7.83,7.36-1.01.87-2.2,1.78-3.43,2.69-.77-1.5-1.54-2.99-2.26-4.51,2.9-1.36,5.63-3.04,8.4-4.65,1.52-.89,3.03-1.77,4.53-2.68,1.31-.81,2.58-1.72,3.9-2.5.13-.07.83-.55,1.01-.39.27.23-.42.87-.58,1.02ZM399.2,531.13c-2.38.41-4.67,1.2-6.9,2.12-4.65,1.92-9.17,4.18-13.53,6.7-1.1.64-2.14,1.37-3.23,2.04-.45.27-.98.62-1.53.75-.08-.32-.15-.66-.24-.98.37-.39.81-.74,1.23-1.07,1.92-1.51,3.67-3.22,5.52-4.79.96-.83,1.94-1.63,2.96-2.38.97-.71,2.05-1.22,3.01-1.93.49-.36,1.54-1.18.5-1.58-.65-.24-1.46-.08-2.11,0-2.44.28-4.88.53-7.28,1.04-2.02.43-3.97,1.09-5.9,1.84-.3-1.48-.63-2.95-.89-4.45.46-.17.89-.36,1.35-.53,7-2.51,14.31-4.24,21.74-4.66,3.8-.22,7.65-.1,11.39.7,3.89.83,7.59,2.37,11.21,3.99,3.82,1.73,7.58,3.62,11.26,5.64,1.81,1.01,3.65,2,5.35,3.2.8.56,1.55,1.2,2.42,1.64.38.19,1.12.38,1.17.91-.13-.46-1.2-.56-1.54-.65-2.34-.62-4.46-1.89-6.72-2.73-2.45-.92-4.97-1.62-7.49-2.26-4.86-1.22-9.82-2.1-14.82-2.64-2.32-.25-4.64-.32-6.94.07ZM453.84,730.35c-.74-8.57-1.48-17.14-2.21-25.74-4.86.21-9.72.45-14.58.69-.77,8.72-1.54,17.46-2.31,26.19-10.28.67-20.54,1.44-30.8,2.31,6.32-42.61,12.64-84.66,18.95-126.27,14.9-.02,29.81-.03,44.71-.05,6.15,40.74,12.32,81.19,18.51,121.48-10.76.35-21.52.83-32.27,1.4ZM486.15,587.62c-2.01-.64-4.02-1.32-5.99-2.08-3.95-1.53-7.8-3.33-11.62-5.14-7.85-3.71-15.49-7.83-22.89-12.36-3.64-2.23-7.37-4.27-11.15-6.26-.42-.22-3.52-2.08-4.26-2.12.66-.21,1.35.05,1.99.23.96.26,1.95.41,2.92.68,2.05.55,3.97,1.47,5.9,2.34,1.96.89,3.93,1.76,5.91,2.63,3.85,1.7,7.74,3.35,11.47,5.29,3.79,1.97,7.38,4.3,11.21,6.2,3.84,1.91,7.9,3.33,11.89,4.86,5.7,2.19,11.48,4.23,17.41,5.73,2.11.55,4.26,1.02,6.41,1.41,4.03.72,8.11,1.05,12.2,1.39,4.24.35,8.49.75,12.75.86,4.13.11,8.26.08,12.39-.13.98-.05,1.98-.17,2.97-.11.45.02,1.69.25.64.65-.83.32-1.81.31-2.69.41-.93.11-1.86.18-2.79.28-8.11.83-16.26,1.39-24.41.95-8.15-.42-16.23-1.81-24.11-3.91-2.06-.56-4.12-1.14-6.15-1.79ZM572.3,728.37c-10.63-.21-21.26-.32-31.89-.32-1.44-2.66-3.08-7.1-3.08-14.19v-26.78c.01-4.43-2.46-6.56-7.6-6.54-2.27.01-4.52.02-6.79.04,0,15.85-.01,31.71-.02,47.57-10.63.11-21.25.32-31.88.65.05-40.45.09-80.88.14-121.33,13.53-.01,27.07-.01,40.61-.01,27.69-.01,36.72,8.88,36.73,26.66.01,3.5.01,6.99.01,10.49.02,17.78-9.02,23.54-21.35,24.22-1.02.05-2.05.11-3.07.17v.53c1.23.06,2.47.13,3.69.19,15.82.75,21.37,9.73,21.38,23.05.01,5.93.01,11.85.02,17.77,0,8,.41,13.34,3.09,16.06v1.78ZM575.32,579.69c-.79-.26-1.57-.63-2.41-.72-.42-.04-.9-.09-1.29-.24-.53-.19-.32-.42.18-.52.74-.14,1.57.22,2.31.26,1,.07,2.01.03,3.01.08,4.22.24,8.4.92,12.55,1.67,3.65.65,7.3,1.41,11.01,1.62,3.49.2,6.98-.08,10.42-.66,3.1-.53,6.25-1.21,8.83-3.14.21-.16.87-.76,1.01-.23.13.48-.85.84-1.15,1.02-1.6.91-3.19,1.8-4.87,2.54-3.17,1.37-6.44,2.58-9.86,3.09-3.5.53-7.05.2-10.53-.25-3.72-.48-7.43-1.05-11.02-2.12-1.75-.52-3.47-1.13-5.23-1.61-.98-.26-1.98-.48-2.95-.8ZM618.37,732.12c-32.49-1.53-38.68-14.37-38.7-34.02-.02-20.01-.04-40.01-.05-60.01-.02-19.58,6.12-32.56,38.52-32.59,32.2-.06,38.38,13.36,38.42,33.58.02,4.83.03,9.66.04,14.49-10.54-.29-21.07-.55-31.61-.75-.01-7.17-.03-14.33-.04-21.49-.01-3.62-.83-7.06-6.79-7.1-5.95-.04-6.77,3.37-6.76,6.96.04,24.79.08,49.58.12,74.38,0,3.59.83,7.03,6.79,7.27,5.96.26,6.78-3.13,6.77-6.75-.01-8.24-.03-16.5-.04-24.74,10.54.33,21.08.74,31.62,1.2.01,6.12.02,12.23.04,18.35.04,20.29-6.08,32.97-38.34,31.21ZM657.49,319.12c-2.37-9.19-7.04-18.04-14.32-24.27-2.14-1.84-4.53-3.36-6.96-4.81-2.48-1.49-4.95-2.98-7.44-4.44-4.72-2.75-9.7-5.19-15.08-6.35-9.29-2.01-19.05-.68-27.93,2.5-9.44,3.38-18.02,8.9-25.44,15.61-8.13,7.34-14.91,16.14-20.11,25.78-5.15,9.54-8.78,19.94-10.34,30.7-1.4,9.65-1.15,19.64,1.52,29.07,2.61,9.16,7.67,17.82,15.14,23.85,2.18,1.77,4.58,3.25,6.99,4.68,2.45,1.46,4.91,2.93,7.36,4.39,2.42,1.43,4.86,2.82,7.48,3.84,2.53.98,5.17,1.65,7.83,2.1,9.39,1.59,19.1.14,27.93-3.26-2.3,1.02-4.65,1.93-7.04,2.72-8.7,2.87-17.97,4.19-27.13,3.4-9.74-.84-19.28-4.12-27.38-9.61-7.98-5.4-14.45-12.92-18.93-21.43-4.29-8.16-6.76-17.22-7.64-26.39-.92-9.55-.11-19.24,2.12-28.55,2.42-10.06,6.52-19.71,11.96-28.5,5.4-8.7,12.13-16.59,19.97-23.17,7.33-6.15,15.65-11.17,24.61-14.55,8.61-3.25,17.83-5,27.04-4.67,9.74.34,19.43,3.05,27.81,8.06,4.46,2.67,8.55,5.95,12.12,9.73,5.22,5.53,9.26,12.11,12.13,19.14,2.87,7.04,4.57,14.54,5.17,22.12-.33-2.58-.82-5.15-1.47-7.67ZM542.68,388.92c-2.96-3.58-4.61-8.07-5.38-12.6.39,3.67,1.21,7.28,2.24,10.82-2.16-2.62-3.64-5.75-4.61-8.99-1.7-5.67-1.84-11.7-1.08-17.54.84-6.41,2.69-12.76,6.07-18.32-1.22,7.43-2.43,14.89-2.84,22.41.37-3.25,1.03-6.46,2-9.59,1.17-3.69,2.68-7.3,4.81-10.56-.67,3.42-1.34,6.83-1.91,10.26-.97,5.83-1.74,11.72-1.71,17.64.03,5.56.89,11.12,2.42,16.47ZM664.78,732.89c-.09-41.79-.18-83.57-.27-125.35,20.1.02,40.19.05,60.3.09.01,7.32.02,14.64.04,21.97-9.51-.19-19-.37-28.5-.55.02,9.8.04,19.59.06,29.39,9.09.35,18.17.75,27.27,1.17.01,7.71.03,15.4.04,23.11-9.08-.61-18.16-1.16-27.26-1.68.02,10.8.05,21.59.07,32.39,9.5.77,18.99,1.61,28.48,2.52.01,7.59.03,15.16.04,22.75-20.06-2.32-40.15-4.26-60.27-5.82ZM724.63,528.29c-2.23,14.53-6.09,28.54-11.38,41.87h-10.65c5.79-13.59,10.02-28.09,12.36-43.35,9-58.86-11.56-115.53-50.53-154.92,1.37-3.4,2.56-6.85,3.56-10.33,7.86,7.57,15.16,15.82,21.75,24.79,30.21,41.1,42.59,91.52,34.88,141.94ZM787.97,747.23c-18.75-2.91-37.54-5.5-56.37-7.76-.07-43.94-.15-87.89-.23-131.83,10.6.02,21.2.04,31.8.06.03,37.44.07,74.87.1,112.3,8.24.96,16.48,1.96,24.71,3.02v24.2ZM529.34,626.96c-2.19.01-4.38.01-6.57.01,0,10.36-.01,20.71-.01,31.06,2.19-.01,4.38-.02,6.57-.02,5.13-.01,7.6-2.14,7.6-6.57v-17.91c0-4.44-2.46-6.56-7.59-6.56ZM445,629.27c-.34,0-.69.01-1.03.01,0,0-.21,5.45-.84,10.9-1.4,14.07-2.79,28.16-4.19,42.29,3.55-.14,7.11-.27,10.67-.39-1.27-13.96-2.55-27.93-3.81-41.93-.4-5.43-.8-10.87-.8-10.87ZM445.8,640.14c-.4-5.43-.8-10.87-.8-10.87-.34,0-.69.01-1.03.01,0,0-.21,5.45-.84,10.9-1.4,14.07-2.79,28.16-4.19,42.29,3.55-.14,7.11-.27,10.67-.39-1.27-13.96-2.55-27.93-3.81-41.93ZM529.34,626.96c-2.19.01-4.38.01-6.57.01,0,10.36-.01,20.71-.01,31.06,2.19-.01,4.38-.02,6.57-.02,5.13-.01,7.6-2.14,7.6-6.57v-17.91c0-4.44-2.46-6.56-7.59-6.56ZM529.34,626.96c-2.19.01-4.38.01-6.57.01,0,10.36-.01,20.71-.01,31.06,2.19-.01,4.38-.02,6.57-.02,5.13-.01,7.6-2.14,7.6-6.57v-17.91c0-4.44-2.46-6.56-7.59-6.56ZM445.8,640.14c-.4-5.43-.8-10.87-.8-10.87-.34,0-.69.01-1.03.01,0,0-.21,5.45-.84,10.9-1.4,14.07-2.79,28.16-4.19,42.29,3.55-.14,7.11-.27,10.67-.39-1.27-13.96-2.55-27.93-3.81-41.93ZM445.8,640.14c-.4-5.43-.8-10.87-.8-10.87-.34,0-.69.01-1.03.01,0,0-.21,5.45-.84,10.9-1.4,14.07-2.79,28.16-4.19,42.29,3.55-.14,7.11-.27,10.67-.39-1.27-13.96-2.55-27.93-3.81-41.93ZM529.34,626.96c-2.19.01-4.38.01-6.57.01,0,10.36-.01,20.71-.01,31.06,2.19-.01,4.38-.02,6.57-.02,5.13-.01,7.6-2.14,7.6-6.57v-17.91c0-4.44-2.46-6.56-7.59-6.56ZM529.34,626.96c-2.19.01-4.38.01-6.57.01,0,10.36-.01,20.71-.01,31.06,2.19-.01,4.38-.02,6.57-.02,5.13-.01,7.6-2.14,7.6-6.57v-17.91c0-4.44-2.46-6.56-7.59-6.56ZM445.8,640.14c-.4-5.43-.8-10.87-.8-10.87-.34,0-.69.01-1.03.01,0,0-.21,5.45-.84,10.9-1.4,14.07-2.79,28.16-4.19,42.29,3.55-.14,7.11-.27,10.67-.39-1.27-13.96-2.55-27.93-3.81-41.93ZM445.8,640.14c-.4-5.43-.8-10.87-.8-10.87-.34,0-.69.01-1.03.01,0,0-.21,5.45-.84,10.9-1.4,14.07-2.79,28.16-4.19,42.29,3.55-.14,7.11-.27,10.67-.39-1.27-13.96-2.55-27.93-3.81-41.93ZM529.34,626.96c-2.19.01-4.38.01-6.57.01,0,10.36-.01,20.71-.01,31.06,2.19-.01,4.38-.02,6.57-.02,5.13-.01,7.6-2.14,7.6-6.57v-17.91c0-4.44-2.46-6.56-7.59-6.56ZM529.34,626.96c-2.19.01-4.38.01-6.57.01,0,10.36-.01,20.71-.01,31.06,2.19-.01,4.38-.02,6.57-.02,5.13-.01,7.6-2.14,7.6-6.57v-17.91c0-4.44-2.46-6.56-7.59-6.56ZM445.8,640.14c-.4-5.43-.8-10.87-.8-10.87-.34,0-.69.01-1.03.01,0,0-.21,5.45-.84,10.9-1.4,14.07-2.79,28.16-4.19,42.29,3.55-.14,7.11-.27,10.67-.39-1.27-13.96-2.55-27.93-3.81-41.93Z"/>
      <path class="cls-2" d="M581.75,327.85c-8.17,7.59-13.5,18.23-14.45,29.35-.81,9.57,1.74,19.8,8.49,26.87,4.02,4.21,9.38,7.15,15.12,8.16,5.14.91,10.52.2,15.34-1.76-1.14.16-2.3.28-3.45.33-8.47.41-17.36-2.81-22.75-9.53-5.07-6.31-6.75-14.78-5.89-22.7.99-9.1,5.22-17.75,11.52-24.36,5.68-5.96,13.3-10.44,21.6-11.26,8.36-.83,17.01,2.6,22.49,8.98,2.04,2.35,3.62,5.06,4.93,7.88-.22-1.44-.58-2.85-1.04-4.23-1.71-5.13-4.96-9.74-9.3-12.98-4.56-3.41-10.2-5.25-15.87-5.47-9.91-.38-19.57,4.05-26.74,10.71Z"/>
      <path class="cls-2" d="M638.83,359.14c-.7-2.52-1.98-4.9-3.81-6.79-2.03-2.07-4.6-3.49-7.09-4.94-2.6-1.52-5.2-3.04-7.75-4.64-2.49-1.58-4.93-3.32-7.72-4.33-4.45-1.62-9.5-.94-13.64,1.22-8.04,4.19-13.13,13.72-11.59,22.75.43,2.5,1.35,4.95,2.85,7,1.68,2.29,4.05,3.91,6.44,5.38,5.25,3.24,10.6,6.33,15.9,9.51.67.15,1.24.53,1.88.78.65.26,1.34.42,2.02.55,8.63,1.61,17.02-4.26,20.79-11.74,2.28-4.5,3.07-9.84,1.71-14.75ZM611.8,342.47c3.34,1.99,6.68,3.99,10,5.99-1.94.14-3.81.73-5.6,1.47-.45.17-.89.35-1.28.62-.35.22-.65.55-1.07.63-.8.16-1.44-.53-1.99-.98-1.7-1.35-3.7-2.25-5.57-3.32-1.95-1.12-3.86-2.32-5.81-3.48,3.37-1.87,7.8-3.02,11.33-.92ZM596.52,346.23c.4-.38.86-.76,1.46-.67.76.11,1.28.82,1.87,1.24.63.47,1.34.8,2.01,1.18,3.07,1.74,6.06,3.63,9.09,5.44-.89.89-1.67,1.88-2.32,2.96-4.6-2.75-9.2-5.51-13.81-8.26.43-.73,1.06-1.34,1.69-1.9ZM604.23,373.76c-2.07-1.23-4.19-2.4-6.21-3.71-.89-.59-1.75-1.27-2.77-1.61-.49-.16-1.57-.23-1.53-.97-1.45-.92-2.88-2.35-2.78-4.2.12-2.3,2.02-4.04,3.77-5.27-.85,2.58-1.26,5.36-.75,8.05.64-2.42,2.25-4.48,4.2-5.99-.92,2.78-1.04,5.81-.5,8.68.65-2.55,2.28-4.74,4.24-6.44-.93,2.58-1.28,5.36-1.03,8.08.7-2.44,2.27-4.56,4.18-6.2-1.11,3.04-1.53,6.4-.82,9.58ZM632.56,373.26c-3.02,5.06-8.88,9.34-15.03,8.21-5.94-1.08-9.28-7.4-8.97-13.05.33-6.17,4.22-12.21,9.84-14.85,5-2.35,11.81-1.35,14.94,3.53,3.13,4.88,2.06,11.4-.78,16.15Z"/>
    </g>
    <g>
      <g>
        <path class="cls-1" d="M388.76,849.87c0-26.45,0-52.9,0-79.35,13.74-1.24,27.47-2.35,41.22-3.36,2.8-.19,5.22.71,7.25,2.71,2.03,2,3.05,4.51,3.05,7.49,0,12.81.02,25.62.03,38.43,0,2.09-.52,4.03-1.57,5.79-1.05,1.76-2.48,3.09-4.28,3.97,2.4,9.68,3.6,14.54,5.99,24.31h-17.98c-2.33-9.19-3.49-13.76-5.82-22.86-4.16.09-6.24.14-10.4.23,0,9.05,0,13.57,0,22.62-6.99,0-10.49,0-17.49,0ZM406.23,811.05c6.66-.27,9.99-.39,16.65-.62,0-10.52,0-15.79-.02-26.31-6.66.39-9.99.6-16.64,1.04,0,10.36,0,15.54.01,25.9Z"/>
        <path class="cls-1" d="M448.36,849.87c4.7-23.32,9.36-46.64,14-69.96-1.27-5.8-1.9-8.7-3.17-14.48,12.86-.64,19.3-.9,32.17-1.28,5.37,28.57,10.72,57.14,16.04,85.72-7.02,0-10.53,0-17.54,0-1.15-6.86-1.73-10.28-2.89-17.13-7.19.05-10.79.07-17.99.14-1.19,6.81-1.79,10.21-2.98,16.99h-17.65ZM471.9,815.9c4.94-.08,7.41-.12,12.34-.19-2.22-13.66-3.33-20.47-5.56-34.06-.33.01-.5.02-.83.03-2.38,13.72-3.57,20.57-5.96,34.22Z"/>
        <path class="cls-1" d="M525.6,849.87c-2.84,0-5.28-1.1-7.31-3.31-2.03-2.2-3.04-4.83-3.05-7.88,0-4.84,0-7.25,0-12.09,7-1.76,10.49-2.64,17.49-4.38,0,4.15,0,6.22,0,10.37,5.07,0,7.6,0,12.67,0,0-5.86,0-8.79,0-14.64-9.52-4.43-14.28-6.63-23.81-10.99-1.92-.87-3.46-2.23-4.62-4.06-1.16-1.84-1.75-3.88-1.75-6.12,0-8.76,0-13.14,0-21.89,0-3.09,1.01-5.75,3.04-7.98,2.03-2.23,4.47-3.36,7.31-3.39,10.79-.09,16.19-.09,26.98,0,2.81.02,5.23,1.16,7.28,3.39,2.05,2.23,3.07,4.89,3.07,7.98,0,4.81,0,7.22,0,12.03-7,1.65-10.5,2.5-17.5,4.21,0-4.15,0-6.22,0-10.36-5.07-.02-7.61-.02-12.68,0,0,4.84,0,7.27,0,12.11,9.52,4.36,14.29,6.58,23.81,11.01,1.92.9,3.46,2.27,4.62,4.12,1.16,1.85,1.74,3.9,1.74,6.15,0,9.82,0,14.72,0,24.54,0,3.05-1.02,5.67-3.05,7.88-2.03,2.21-4.47,3.31-7.3,3.31h-26.95Z"/>
        <path class="cls-1" d="M650.5,849.87c0-10.88.01-16.33.02-27.21-7.04-18.83-13.95-37.71-20.82-56.61,7.48.43,11.22.66,18.7,1.18,3.57,11.74,7.18,23.48,10.82,35.21,4.32-13.58,6.48-20.3,10.8-33.57,7.47.62,11.2.95,18.67,1.65-7.06,17.48-14,35.01-20.85,52.57,0,10.71,0,16.07-.01,26.78h-17.32Z"/>
        <path class="cls-1" d="M584.48,849.87c-2.84,0-5.27-1.1-7.3-3.3-2.03-2.2-3.04-4.82-3.04-7.86,0-4.82,0-7.24,0-12.06,7-1.69,10.5-2.52,17.49-4.16,0,4.1,0,6.16,0,10.26,5.07.03,7.6.05,12.67.09,0-5.77,0-8.65,0-14.42-9.52-4.49-14.27-6.75-23.79-11.26-1.92-.9-3.46-2.28-4.62-4.13-1.16-1.85-1.74-3.9-1.74-6.14,0-8.73,0-13.1,0-21.84,0-3.08,1.02-5.7,3.05-7.85,2.03-2.15,4.47-3.19,7.31-3.1,10.79.31,16.18.51,26.96,1,2.81.13,5.23,1.33,7.28,3.59,2.05,2.26,3.07,4.89,3.07,7.91,0,4.7,0,7.05,0,11.75-7,1.43-10.5,2.16-17.49,3.67,0-4.08,0-6.12,0-10.2-5.07-.17-7.61-.24-12.68-.38,0,4.8,0,7.19,0,11.99,9.52,4.55,14.28,6.84,23.79,11.37,1.92.92,3.46,2.29,4.62,4.12s1.74,3.84,1.74,6.04c0,9.59-.01,14.38-.02,23.97,0,2.98-1.02,5.54-3.05,7.69-2.03,2.15-4.47,3.24-7.31,3.24-10.78,0-16.17,0-26.95,0Z"/>
      </g>
      <path class="cls-1" d="M272.52,809.99c34.46-2.05,68.93-3.7,103.41-4.96v9.94c-34.48-1.27-68.96-2.92-103.41-4.97Z"/>
      <path class="cls-1" d="M806.86,809.99c-40.75,2.44-81.54,4.32-122.35,5.63,1.47-3.73,2.94-7.44,4.4-11.13,39.33,1.31,78.66,3.14,117.95,5.5Z"/>
    </g>
  </g>
</svg>