<?xml version="1.0" encoding="UTF-8"?>
<svg id="Camada_1" data-name="Camada 1" xmlns="http://www.w3.org/2000/svg" viewBox="0 0 1080 1080">
  <defs>
    <style>
      .cls-1 {
        fill: #f0efeb;
      }
    </style>
  </defs>
  <path class="cls-1" d="M569.58,630.47c-6.14-7.57-14.13-13.49-22.95-17.6-8.84-4.02-17.77-8.01-27.22-10.42-9.41-2.49-19.24-3.34-28.93-2.49-4.84.39-9.66,1.07-14.48,1.59-4.84.6-9.71.82-14.51,1.76-4.03-6.66-8.75-12.86-13.91-18.67-5.19-5.8-10.83-11.2-16.68-16.34-11.67-10.29-24.62-19.09-38.3-26.5-13.72-7.37-29.19-11.24-44.74-12.01-15.58-.91-31.05,2.06-46.07,5.95l-11.65,4.14c-13.07,25.76-22.35,54.03-26.94,84.13-8.28,54.12-.32,107.01,20.12,153.8-4.81-1.3-10.22-2.12-16.35-2.15h-1.22c-19.35-48.33-25.59-101.12-17.51-153.94,1.79-11.75,4.3-23.38,7.48-34.82,3.14-11.25,6.94-22.33,11.41-33.13,4.39-10.63,9.4-21,15.01-31.05,5.55-9.94,11.68-19.55,18.34-28.78,6.61-9.15,13.75-17.93,21.37-26.27,7.59-8.3,15.66-16.17,24.14-23.55,8.47-7.39,17.34-14.28,26.6-20.65,9.24-6.38,18.85-12.24,28.78-17.53.4-.22,1.38-.76,1.38-.76,0,0-.09-1.81-.08-2.38.32-12.87,7.53-30.95,16.06-41.59-.28.88-.57,1.76-.82,2.66-3.25,11.71-4.91,23.85-4.91,35.99v.17s.06-.05.08-.05c0,.54-.02,1.08-.02,1.62.02,4.74.23,9.47.65,14.19.03.28.05.53.05.82.63,6.54,1.61,13.01,3.28,19.4,3.08,11.75,7.88,23.07,14.53,33.24-9.3-8.48-16.49-19.44-21.33-31.5-1.19-3-2.26-6.09-3.2-9.26-.7-2.49-1.25-4.96-1.81-7.39-43.4,23.91-80.24,59.07-105.97,102.23,7.54-1.76,15.39-3.45,23.58-4.51,8.44-1.1,17.11-1.42,25.64-.85,8.55.54,17.06,1.99,25.35,4.3,8.24,2.27,16.55,5.66,23.91,9.75,7.43,4.08,14.11,8.5,20.79,13.2,6.6,4.67,13.2,9.97,19.1,15.39,10.45,9.74,20.4,20.66,28.25,33.18,3.23-.42,6.31-.6,9.18-1.04,4.62-.39,9.64-.96,14.8-1.24,5.13-.36,10.6-.05,15.89.68,5.29.73,10.43,1.96,15.41,3.52,4.93,1.73,9.69,3.82,14.19,6.1,4.47,2.36,8.75,4.5,13.07,7.26,4.31,2.7,8.52,5.81,12.12,9.37,3.51,3.72,6.77,7.53,9.06,11.98Z"/>
  <path class="cls-1" d="M525.46,283.24c-1.85.97-3.74,1.87-5.55,2.94-1.27.76-2.52,1.47-4.03,1.07-1.85-.51-3.34-1.92-4.9-2.95-1.79-1.19-3.66-2.26-5.52-3.35,1.79-.85,3.69-1.53,5.41-2.55,1.17-.7,2.43-1.82,3.91-1.55.87.15,1.5.8,2.19,1.28.91.68,1.92,1.21,2.91,1.76,1.89,1.08,3.71,2.23,5.58,3.35Z"/>
  <path class="cls-1" d="M584.32,273.97c-5.15-.65-10.34-.83-15.52-.77-8.76.08-17.56.91-26.07,3.14-2.13.56-4.25,1.21-6.32,1.93-1.05.39-2.07.79-3.03,1.31-.77.4-1.55.83-2.44.82-1.68-.05-3.06-1.36-4.39-2.26-2.04-1.34-4.19-2.5-6.27-3.76,4.7-1.56,9.55-2.72,14.4-3.66,8.31-1.64,16.77-2.61,25.24-2.4,8.38.2,16.92,1.64,24.4,5.64Z"/>
  <path class="cls-1" d="M594.45,281.58c-1.9-.25-3.82-.42-5.72-.56-14.28-.97-28.68.96-42.3,5.3-13.97,4.48-27.09,11.54-38.71,20.48-12.43,9.57-23.14,21.31-31.79,34.37-8.79,13.26-15.55,27.91-19.58,43.32-3.76,14.42-5.29,29.44-4.28,44.32-.22-1.67-.4-3.35-.54-5.04-1.19-13.21-.32-26.61,2.53-39.56,3.04-13.8,8.3-27.09,15.3-39.35,7.03-12.3,15.84-23.6,26.15-33.33,9.72-9.16,20.8-16.92,32.87-22.66,11.51-5.47,23.95-9.07,36.69-10.14,9.86-.73,19.87.08,29.38,2.84Z"/>
  <path class="cls-1" d="M448.05,450.76c-4.79-8.39-7.9-17.7-9.54-27.18.96,7.62,2.47,15.15,4.13,22.66-3.63-6.37-6.29-13.28-8.08-20.38-5.87-23.18-2.44-48.65,9.64-69.31-3.43,14.71-6.49,29.63-6.83,44.79-.02.29,0,.59,0,.9.87-14.4,4.93-28.67,12.24-41.15-1.58,6.74-3.15,13.49-4.36,20.31-1.98,11.44-2.91,23.06-2.36,34.66.54,11.7,2.64,23.27,5.16,34.73Z"/>
  <path class="cls-1" d="M510.87,495.15c-7.23-10.99-10.74-23.99-12.12-36.95.94,11.41,3.06,22.75,6.57,33.64-6.17-9.4-9.58-20.35-11.34-31.4,1.11,9.57,3.04,19.06,6.01,28.2-6.04-9.16-9.44-19.84-11.24-30.63,1.13,9.32,3.03,18.55,5.92,27.46-3.37-5.15-5.89-10.82-7.8-16.64-6.37-19.26-6.49-40.38-1.14-59.9,2.33-8.42,5.7-16.61,10.42-23.99-4.59,14.77-7.68,30.07-8.41,45.54,1.34-14.9,5.61-29.72,13.72-42.38-4.65,14.94-7.76,30.44-8.44,46.12,1.28-15.08,5.58-30.11,13.79-42.92-1.22,3.89-2.35,7.85-3.32,11.84-3.32,13.34-5.22,27.03-5.27,40.78.45-17.26,4.76-34.69,14.13-49.31-2.35,7.5-4.34,15.13-5.81,22.89-4.85,25.69-3.72,52.7,4.34,77.64Z"/>
  <path class="cls-1" d="M660.65,304.67c-7.77-2.06-15.89-2.63-23.92-2.55-13.46.14-26.84,2.74-39.38,7.59-3.25,1.27-6.52,2.63-9.47,4.51-1.16.74-2.33,1.79-3.76,1.95-1.68.19-3.04-1.07-4.31-2.01-1.45-1.08-3.06-1.93-4.59-2.92-1.44-.91-2.81-2.16-4.53-2.55-2.84-.6-5.1,1.64-7.36,2.97,4.57,2.72,9.13,5.46,13.69,8.19-1.33.88-2.67,1.78-3.99,2.7-1.1.82-2.16,1.79-3.42,2.38-2.3,1.08-4.28-.39-6.15-1.61-2.35-1.55-4.88-2.78-7.2-4.37-.8-.57-1.68-1.24-2.74-1.08-1.1.17-1.85,1.11-2.64,1.81-3.93,3.6-8.55,6.38-12.72,9.71-8.78,7.02-16.8,14.99-24.37,23.29,4.57-7.63,10.28-14.53,16.47-20.89,10.2-10.45,21.99-19.41,35.02-26.06,12.19-6.2,25.56-10.29,39.27-11.08,4.37-.6,8.78-.96,13.2-.99,14.91-.11,29.95,3.54,42.89,11.02Z"/>
  <path class="cls-1" d="M730.26,399.56c-.53-3.99-1.27-7.96-2.27-11.85-3.65-14.2-10.88-27.88-22.13-37.51-3.31-2.84-7-5.19-10.76-7.45-3.83-2.29-7.63-4.61-11.5-6.86-7.29-4.25-14.99-8.02-23.31-9.81-14.37-3.11-29.46-1.05-43.18,3.86-14.57,5.22-27.85,13.75-39.3,24.11-12.56,11.36-23.04,24.96-31.08,39.84-7.96,14.74-13.57,30.83-15.96,47.44-2.16,14.91-1.79,30.35,2.33,44.93,4.03,14.16,11.85,27.54,23.4,36.86,3.38,2.72,7.09,5.01,10.8,7.23,3.79,2.24,7.59,4.53,11.39,6.78,3.72,2.19,7.51,4.36,11.56,5.93,3.91,1.51,7.99,2.55,12.1,3.25,14.5,2.46,29.52.23,43.16-5.02-3.54,1.58-7.19,2.98-10.88,4.2-13.45,4.44-27.77,6.48-41.91,5.25-15.05-1.3-29.8-6.37-42.31-14.85-12.33-8.35-22.33-19.97-29.26-33.12-6.63-12.61-10.45-26.63-11.81-40.78-1.42-14.76-.17-29.73,3.28-44.12,3.74-15.55,10.09-30.46,18.5-44.04,8.35-13.45,18.75-25.64,30.86-35.81,11.34-9.5,24.19-17.26,38.03-22.5,13.31-5.01,27.56-7.71,41.79-7.22,15.05.53,30.03,4.73,42.99,12.46,6.89,4.13,13.2,9.2,18.71,15.04,8.07,8.55,14.33,18.72,18.75,29.58,4.44,10.88,7.06,22.47,7.99,34.19Z"/>
  <path class="cls-1" d="M670,335.35c-4.36-.49-8.78-.25-13.15.25-13.92,1.58-27.39,6.66-39.05,14.37-4.62-2.77-9.24-5.52-13.86-8.28,5.13-2.58,10.51-4.64,15.96-6.41,15.98-5.21,34.65-8.52,50.1.08Z"/>
  <path class="cls-1" d="M610.22,354.19c-1.87,1.44-3.85,2.74-5.64,4.3-1.21,1.04-2.35,2.13-4.05,1.47-2.16-.88-4.1-2.43-6.07-3.63-2.13-1.28-4.25-2.57-6.38-3.83,2.83-2.15,5.66-4.31,8.52-6.46l13.63,8.16Z"/>
  <path class="cls-1" d="M550.56,495.58c-4.57-5.53-7.12-12.47-8.31-19.47.6,5.67,1.87,11.25,3.45,16.72-3.34-4.03-5.63-8.89-7.12-13.89-2.63-8.76-2.84-18.08-1.67-27.09,1.3-9.92,4.16-19.74,9.38-28.31-1.89,11.48-3.76,23.01-4.39,34.63.57-5.01,1.59-9.98,3.09-14.82,1.81-5.7,4.14-11.28,7.43-16.3-1.02,5.27-2.06,10.54-2.95,15.84-1.5,9.01-2.69,18.11-2.64,27.26.05,8.59,1.38,17.17,3.74,25.44Z"/>
  <path class="cls-1" d="M724.32,406.84c-1.07-17.22-6.66-34.79-18.7-47.52-3.54-3.72-7.59-7-12.01-9.64-15.49-9.26-34.82-9.81-51.83-4.9-17.96,5.16-33.89,15.92-47.03,29.04-14.88,14.9-26.4,33.12-33.58,52.9-6.48,17.82-9.54,37.18-6.92,56.08,2.36,17.14,9.83,34.29,23.54,45.34,14.3,11.53,33.95,14.62,51.65,11.05,18.07-3.6,34.43-13.28,48.06-25.42,15.55-13.82,27.8-31.2,36.05-50.29,7.67-17.76,11.96-37.23,10.77-56.64ZM625.11,500.7c-8.87-1.56-17.15-6.1-23.37-12.61-10.45-10.93-14.39-26.74-13.14-41.53,1.47-17.2,9.71-33.64,22.33-45.36,11.08-10.29,26.01-17.14,41.32-16.55,8.76.34,17.48,3.18,24.53,8.45,6.71,5.01,11.75,12.13,14.37,20.06.71,2.12,1.27,4.31,1.62,6.52-2.02-4.34-4.48-8.53-7.63-12.18-8.45-9.86-21.82-15.16-34.74-13.88-12.83,1.27-24.59,8.19-33.38,17.4-9.74,10.22-16.27,23.58-17.8,37.65-1.33,12.24,1.25,25.34,9.1,35.1,8.33,10.37,22.07,15.36,35.16,14.71,1.78-.08,3.55-.26,5.33-.51-7.45,3.03-15.76,4.13-23.71,2.72ZM696.51,472.35c-5.83,11.56-18.79,20.63-32.13,18.14-1.07-.19-2.13-.45-3.12-.85-.99-.39-1.89-.97-2.92-1.21-8.18-4.9-16.44-9.69-24.56-14.68-3.71-2.27-7.37-4.79-9.97-8.31-2.32-3.18-3.72-6.97-4.4-10.82-2.38-13.96,5.49-28.68,17.91-35.16,6.41-3.34,14.22-4.39,21.1-1.89,4.31,1.56,8.07,4.25,11.92,6.69,3.94,2.46,7.96,4.82,11.98,7.17,3.85,2.23,7.82,4.42,10.96,7.62,2.83,2.92,4.81,6.6,5.89,10.49,2.12,7.57.88,15.83-2.64,22.8Z"/>
  <path class="cls-1" d="M689.46,471.38c-4.67,7.82-13.72,14.42-23.23,12.69-9.16-1.67-14.34-11.44-13.86-20.17.53-9.54,6.52-18.85,15.21-22.93,7.73-3.63,18.27-2.09,23.09,5.46,4.84,7.54,3.18,17.6-1.21,24.96Z"/>
  <path class="cls-1" d="M645.68,472.15c-3.2-1.9-6.46-3.69-9.6-5.73-1.38-.9-2.7-1.96-4.28-2.49-.74-.25-2.43-.36-2.36-1.5-2.23-1.42-4.45-3.62-4.3-6.48.19-3.55,3.14-6.24,5.84-8.14-1.31,3.99-1.96,8.28-1.16,12.44.97-3.74,3.46-6.92,6.48-9.26-1.42,4.3-1.61,8.98-.76,13.41,1-3.94,3.51-7.34,6.55-9.95-1.44,3.97-1.99,8.28-1.61,12.49,1.08-3.77,3.51-7.06,6.46-9.58-1.72,4.7-2.36,9.89-1.27,14.79Z"/>
  <path class="cls-1" d="M656.06,440.75c-1.38,1.38-2.58,2.91-3.59,4.57-7.11-4.25-14.22-8.52-21.33-12.77.66-1.13,1.64-2.07,2.61-2.95.62-.59,1.33-1.16,2.24-1.02,1.17.17,1.99,1.27,2.89,1.92.97.73,2.07,1.24,3.12,1.82,4.74,2.69,9.35,5.61,14.05,8.42Z"/>
  <path class="cls-1" d="M672.83,433.05c-3,.22-5.89,1.13-8.65,2.27-.7.26-1.38.54-1.99.94-.54.36-.99.85-1.65.97-1.24.25-2.23-.82-3.08-1.51-2.63-2.09-5.72-3.48-8.61-5.13-3.03-1.73-5.98-3.57-8.98-5.38,5.21-2.89,12.05-4.67,17.51-1.42,5.16,3.08,10.31,6.18,15.45,9.26Z"/>
  <path class="cls-1" d="M831.75,710.97c-3.45,22.47-9.41,44.11-17.59,64.71h-16.46c8.93-21,15.49-43.4,19.1-66.98,13.91-90.98-17.87-178.54-78.09-239.43,2.12-5.25,3.96-10.57,5.5-15.95,12.15,11.68,23.43,24.43,33.61,38.31,46.69,63.52,65.82,141.44,53.92,219.34Z"/>
  <path class="cls-1" d="M669.72,789.09c-2.47,1.41-4.93,2.78-7.54,3.93-4.88,2.12-9.95,3.99-15.24,4.79-5.41.8-10.9.31-16.27-.4-5.75-.73-11.48-1.62-17.03-3.28-2.7-.8-5.36-1.75-8.08-2.49-1.51-.4-3.06-.74-4.56-1.24-1.22-.4-2.43-.97-3.72-1.11-.65-.06-1.39-.14-1.99-.37-.82-.29-.51-.65.28-.8,1.14-.22,2.43.36,3.55.42,1.56.11,3.12.05,4.67.12,6.52.37,12.98,1.42,19.39,2.58,5.64.99,11.28,2.16,17.02,2.5,5.39.31,10.79-.14,16.1-1.02,4.79-.82,9.66-1.89,13.65-4.85.32-.25,1.34-1.17,1.56-.36.2.74-1.31,1.3-1.78,1.58Z"/>
  <path class="cls-1" d="M556.17,808.93c-1.28.49-2.8.48-4.16.63-1.44.17-2.87.28-4.31.43-12.53,1.28-25.13,2.15-37.74,1.47-12.6-.65-25.08-2.8-37.26-6.04-3.18-.87-6.35-1.76-9.5-2.77-3.11-.99-6.2-2.04-9.24-3.21-6.12-2.36-12.05-5.15-17.96-7.94-12.13-5.73-23.95-12.1-35.38-19.1-5.63-3.43-11.39-6.6-17.23-9.67-.65-.34-5.44-3.21-6.57-3.28,1-.34,2.07.08,3.08.36,1.48.4,3.01.63,4.51,1.05,3.17.83,6.15,2.26,9.12,3.6,3.03,1.38,6.07,2.72,9.12,4.06,5.97,2.63,11.96,5.18,17.73,8.18,5.86,3.04,11.42,6.65,17.32,9.58,5.93,2.95,12.21,5.15,18.38,7.53,8.82,3.38,17.74,6.52,26.91,8.86,3.26.85,6.58,1.58,9.91,2.18,6.23,1.1,12.53,1.62,18.85,2.13,6.55.56,13.11,1.16,19.7,1.33,6.38.17,12.77.12,19.15-.2,1.51-.08,3.06-.26,4.59-.17.7.03,2.61.39.99,1Z"/>
  <path class="cls-1" d="M332.6,762.49c-.91.85-1.89,1.62-2.78,2.53-.99,1.04-2.01,2.07-3.03,3.12-3.89,3.94-7.9,7.77-12.1,11.37-1.56,1.34-3.4,2.75-5.3,4.16-1.17-2.3-2.36-4.62-3.48-6.97,4.48-2.09,8.7-4.7,12.98-7.19,2.35-1.38,4.7-2.74,7-4.14,2.04-1.25,3.99-2.66,6.04-3.86.2-.11,1.28-.85,1.56-.6.42.36-.66,1.34-.9,1.58Z"/>
  <path class="cls-1" d="M386.77,728.04c-.2-.71-1.87-.87-2.38-1-3.62-.96-6.89-2.92-10.39-4.22-3.77-1.42-7.67-2.5-11.58-3.49-7.51-1.89-15.18-3.25-22.9-4.08-3.57-.39-7.17-.49-10.71.11-3.68.65-7.23,1.87-10.66,3.29-7.19,2.97-14.19,6.46-20.91,10.34-1.72.99-3.32,2.12-4.99,3.17-.7.42-1.51.94-2.36,1.16-.12-.51-.23-1.02-.37-1.53.57-.6,1.25-1.13,1.9-1.65,2.98-2.32,5.67-4.96,8.55-7.4,1.48-1.28,3-2.52,4.57-3.68,1.5-1.1,3.17-1.89,4.65-2.98.76-.56,2.38-1.82.77-2.44-1-.37-2.26-.12-3.28,0-3.76.45-7.54.82-11.25,1.61-3.12.68-6.14,1.7-9.1,2.84-.48-2.27-.97-4.56-1.38-6.88.7-.26,1.38-.56,2.07-.8,10.82-3.88,22.12-6.55,33.61-7.2,5.87-.36,11.81-.15,17.59,1.07,6.03,1.28,11.73,3.66,17.32,6.18,5.9,2.67,11.71,5.59,17.4,8.72,2.8,1.56,5.64,3.11,8.27,4.95,1.24.85,2.38,1.85,3.72,2.53.6.29,1.75.59,1.82,1.41Z"/>
  <path class="cls-1" d="M413.01,604.75c-.03,5.39-3.38,9.6-7.7,12.5-8.48,5.75-18.95,7.6-28.98,8.36-2.74.2-5.53.46-8.27.22-1.34-.11-2.6-.53-3.91-.74-.66-.11-1.65-.11-1.04.82.49.76,1.76,1.07,2.53,1.39,1.27.53,2.53,1,3.79,1.55,2.21.94,4.51,2.23,5.58,4.5,1.05,2.21.62,4.81.22,7.12-.46,2.75-1.25,5.35-3.03,7.54-3.35,4.16-8.38,6.54-12.98,9.01-5.08,2.74-10.23,5.36-15.72,7.14-5.29,1.73-10.77,2.75-16.24,3.74-12.15,2.19-24.33,4.27-36.49,6.52-3.2.57-6.38,1.31-9.57,1.98-.63-16.17.25-32.62,2.78-49.19,3.04-19.95,8.33-39.01,15.52-56.98,3.43,1.73,6.99,3.21,10.63,4.37,5.49,1.73,11.24,2.43,16.74,4.06.42.12,2.09.83,2.12-.08.03-.63-1.1-.97-1.55-1.16-2.63-1.07-5.02-2.57-7.43-4.05-5.07-3.11-10.4-5.78-15.27-9.21-.65-.46-1.41-1-1.99-1.67.91-2.09,1.85-4.19,2.83-6.24.48-.22.96-.39,1.41-.53,2.69-.87,5.47-1.34,8.24-1.89,2.89-.6,5.73-1.36,8.62-1.95,10.49-2.07,21.37-1.9,31.87-.08,11.27,1.96,22.35,5.92,31.57,12.8,4.64,3.45,9.04,7.39,12.86,11.73,3.52,4,6.2,8.67,8.42,13.49,2.13,4.64,4.47,9.69,4.44,14.91Z"/>
  <path class="cls-1" d="M614.21,579.71c-.39,4.9-1.11,9.78-.94,14.71.17,4.87.94,9.69.93,14.56,0,4.99-.63,9.94-1.33,14.87-.34,2.38-.65,4.74-.96,7.14-.03.28-.17,1.81-.82,1.56-.39-.14-.39-1.11-.42-1.42-.4-4.5-.82-8.99-1.13-13.51-.36-4.91-.73-9.92-.22-14.84.14-1.47.63-2.86.79-4.31.08-.74-.02-2.95-1.38-2.33-.96.45-1.22,2.32-1.39,3.21-.36,1.76-.8,3.46-1.44,5.15-1.76,4.76-3.43,9.5-4.67,14.43-2.47,9.84-4.17,19.91-8.18,29.32-1.98,4.67-4.54,9.04-6.29,13.83-.32.88-.63,1.98-1.28,2.72-1.07,1.25-1.04-1.13-.93-1.78.74-4.3,2.21-8.58,3.55-12.72,1.59-4.81,3.29-9.58,4.56-14.47,2.46-9.55,3.08-19.55,6.37-28.9,1.7-4.84,4.11-9.35,6.04-14.11,1.9-4.7,3.23-9.63,4.28-14.59.94-4.5.85-9.12.71-13.68-.03-1.19-.06-2.38-.11-3.57-.05-.91-.25-1.93.12-2.8.68-1.58,2.6-1.11,3.96-1.28-.02,2.53.06,5.07.15,7.6.2,5.05.42,10.12,0,15.19Z"/>
  <path class="cls-1" d="M720.43,722.33c-.26,8.62-.9,17.23-1.24,25.84-.17,4.28-.23,8.61-.71,12.86-.43,3.89-1.44,7.71-3.91,10.83-4.42,5.56-11.65,7.74-18.16,9.81-1.79.57-3.62,1.11-5.36,1.85-.46.22-2.32,1.31-2.69.51-.34-.74,1.62-1.51,2.07-1.75,1.78-.96,3.48-2.06,5.25-3.03,6.54-3.6,13.35-7.45,16.01-14.9,1.36-3.82,1.51-7.82,2.02-11.78.05-.48.76-3.4-.37-3.2-.7.12-.85,1.95-.93,2.44-1.3,7.33-6.78,13.09-13.35,16.15-3.76,1.76-7.71,3.08-11.56,4.65-3.91,1.61-7.7,3.51-11.54,5.24-6.86,3.12-14.09,5.64-21.67,6.17-7.94.57-15.81-1.22-23.34-3.54-7.9-2.43-15.67-5.33-23.81-6.85-8.11-1.51-16.32-1.22-24.53-.94-8.21.28-16.44.94-24.67.82-8.73-.14-17.48-.71-26.23-1.04-16.3-.62-32.72-1.62-48.48-6.12-16.18-4.64-31.25-13.28-41.22-27.14-2.06-2.87-2.36-6.26-.43-9.3,1.93-3.09,5.42-4.57,8.75-5.7,7.63-2.58,15.36-4.78,23.34-6.03,4.13-.66,8.3-1.07,12.47-1.3,2.1-.12,4.19-.25,6.31-.25.79,0,3.4.54,4.06-.14.94-.96-1.51-1.28-2.01-1.33-1.73-.15-3.43-.42-5.15-.76-4.17-.87-8.22-2.07-12.19-3.57-16.1-6.04-30.72-16.21-43.81-27.22-3.25-2.72-6.2-5.8-9.46-8.48-.53-.42-1.38-1.28-2.1-1.36-.85-.11-.99.59-.82,1.27.49,1.96,1.38,3.91,2.02,5.81.66,1.9,1.34,3.76,2.27,5.53.88,1.75,2.18,3.25,3,5.01.23.51.66,1.39.08,1.81-.49.36-1.21-.17-1.64-.37-1.9-.91-3.89-1.53-5.78-2.41-2.91-1.34-5.84-2.61-8.59-4.25-4.45-2.66-8.47-6.43-10.52-11.28-.97-2.3-1.55-4.88-.83-7.33.74-2.57,2.87-4.57,5.32-5.49,2.46-.94,5.39-.83,7.74.34.93.46,4.87,4.14,5.19,1.59.19-1.24-.51-2.5-.48-3.76.05-1.38.6-2.72,1.38-3.82,1.62-2.4,4.22-3.94,6.61-5.47,9.58-6.12,20.24-10.73,31.43-12.89,5.8-1.13,11.65-1.44,17.57-1.38,1.39,0,2.77,0,4.16.12.34.03,2.06.31,1.89-.49-.12-.57-1.51-.46-1.95-.46-1.08-.02-2.16-.12-3.25-.23-12.07-1.11-24.29-1.68-36.38-.6-2.98.25-5.97.6-8.92,1.08-2.18.34-4.31,1-6.48,1.38-.54.09-1.51.28-1.36-.54.14-.77,1.51-1.31,2.13-1.61,2.53-1.24,5.04-2.47,7.63-3.55,10.94-4.65,22.49-7.68,34.25-9.35,6.26-.9,12.56-1.48,18.85-2.06,5.95-.51,11.95-.83,17.88-.17,11.7,1.31,22.78,5.93,33.13,11.28,5.44,2.8,10.85,6.07,14.98,10.65,1.98,2.21,3.49,4.73,4.98,7.26.73,1.28,1.65,2.55,2.09,3.97.25.8.26,2.18,1.24,2.44-1.45-.4-2.7-1.33-3.99-2.09-1.24-.73-2.52-1.39-3.83-2.02-2.77-1.33-5.63-2.44-8.44-3.68-2.74-1.21-5.42-2.47-8.24-3.48-1.16-.42-2.33-.83-3.51-1.17-.48-.14-1.42-.46-1.19.34.23.8,2.15,1.65,2.78,2.06,1.21.76,2.46,1.47,3.66,2.21,9.75,6.18,18.59,14.19,25.95,23.07,3.32,4.03,6.78,8.27,8.52,13.28,1.68,4.84,1.02,10.08-1.1,14.68-2.16,4.74-5.69,9.03-10.63,11.02-2.49,1-5.16,1.51-7.76,2.18-2.86.73-5.7,1.51-8.55,2.33-5.35,1.55-10.69,3.2-16.26,3.93-2.49.31-5.01.48-7.48-.06-.46-.09-1.75-.56-2.1-.03-.43.62.66,1.07,1.08,1.24,2.18.85,4.57,1.39,6.8,2.07,2.92.88,5.84,1.72,8.78,2.5,5.67,1.5,11.24,2.3,17.11,2.38,5.81.09,11.61-.29,17.37-1.05,5.39-.74,10.77-1.67,16.2-.77,11.68,1.99,20.83,10.62,29.35,18.22,4.5,4,8.98,8.18,14.23,11.17,2.64,1.48,5.47,2.53,8.33,3.49,2.81.94,5.58,1.96,8.42,2.75,5.49,1.56,11.2,1.81,16.88,1.58,2.94-.12,5.89-.31,8.79-.79,1.25-.2,2.52-.53,3.82-.46.32.02.77.09,1.17.11-.76-.09-1.59-.56-2.13-.73-1.89-.59-3.91-.45-5.84-.8-2.23-.42-4.37-1.25-6.52-2.01-2.07-.74-4.17-1.48-5.98-2.77-1.68-1.19-3.03-2.77-4.45-4.22s-2.94-2.84-4.34-4.3c-2.77-2.84-5.24-5.97-7.48-9.24-2.15-3.15-4.23-6.43-5.64-10-1.42-3.6-1.9-7.45-2.63-11.2-1.51-7.97-3.83-15.76-5.25-23.75-.68-3.97-1.19-7.96-1.56-11.98-.19-2.04-.36-4.06-.37-6.12-.02-.99.02-1.98-.03-2.97-.05-.63-.15-1.34.12-1.95-.12.49.42,1.1.59,1.56.28.74.23,1.58.29,2.36.12,1.79.46,3.57.88,5.3.96,3.88,2.44,7.59,3.93,11.28,1.53,3.77,2.97,7.59,4.48,11.37,2.83,7.03,6.65,13.57,11.37,19.47,2.53,3.15,5.32,6.07,8.16,8.93,1.42,1.44,2.86,2.86,4.27,4.3.62.62,1.64,2.09,2.58,2.35,1.22.36.23-1.39-.08-1.76-.96-1.13-1.98-2.02-2.8-3.25-2.18-3.18-3.82-6.74-5.15-10.34-1.33-3.55-2.41-7.28-2.92-11.05-.53-3.86-.28-7.71.45-11.51.73-3.89,1.81-7.71,2.74-11.56.96-4.02,1.64-8.07,2.36-12.13,1.41-7.94,3.76-15.64,7.65-22.75,1.89-3.43,4.03-6.77,6.65-9.67.31-.32,1.5-1.31,1.22-1.92-.29-.6-1.38-.06-1.79.14-1.51.68-2.75,1.85-4.11,2.78-3.23,2.18-6.52,4.25-9.35,6.97-1.28,1.25-2.15,2.98-3.57,4.1-1.34,1.02-2.01-.34-2.07-1.61-.08-1.96.08-3.93,0-5.9-.09-2.04-.12-4.1,0-6.12.25-3.88,1.05-7.7,2.09-11.42,2.26-7.88,5.78-15.33,8.81-22.93,2.89-7.26,4.79-14.88,5.73-22.64.93-7.62,1.07-15.36.22-23-.43-3.88-1.13-7.74-2.12-11.53-.46-1.81-.96-3.65-1.5-5.44-.19-.6-1.42-3.26-1.53-1.19-.09,1.73.7,3.59.94,5.27.29,1.9.37,3.83.31,5.73-.12,3.89-.77,7.79-1.59,11.59-.88,4-2.04,7.91-3.09,11.88-.56,2.06-1.07,4.11-1.58,6.17-.43,1.72-.63,3.88-1.48,5.42-.8,1.42-1.5.66-1.62-.59-.17-1.79.03-3.69.08-5.52.12-4.08.22-8.18.36-12.26.14-3.89.29-7.79.26-11.7-.02-1.99-.09-3.97-.23-5.93-.12-1.7-.54-3.42-.56-5.1,0-3.72,4.22-4.53,6.89-5.97,3.52-1.92,6.83-4.14,10.12-6.41,6.63-4.57,12.86-9.72,18.65-15.32,2.91,7.97,5.87,15.95,8.64,23.99,5.39,15.67,9.95,31.65,12.94,47.97,1.48,8.14,2.77,16.37,3.2,24.63.43,8.24-.12,16.49-1.19,24.65-1.08,8.42-2.87,16.72-3.91,25.16-1.02,8.19-1.65,16.49-1.28,24.76.32,8.02,1.31,16.03.77,24.06-.54,8.22-2.52,16.3-4.87,24.17-.59,1.95-1.07,3.96-1.99,5.78-.4.8-1.39,1.92-1.22,2.89.42,2.24,3.26-1.93,3.62-2.47,4.44-6.95,7.33-14.82,8.9-22.9,1.61-8.18,1.89-16.52,2.12-24.82.11-4.25.17-8.52.46-12.75.08-1.11.85-11.11,1.89-10.82,1.02.28.7,4.03.71,4.79.02,2.1.14,4.17.34,6.24.43,4.11.91,8.21,1.19,12.33.6,8.44.76,16.91.49,25.38Z"/>
</svg>