<?xml version="1.0" encoding="UTF-8"?>
<svg id="Camada_1" data-name="Camada 1" xmlns="http://www.w3.org/2000/svg" viewBox="0 0 1080 1080">
  <defs>
    <style>
      .cls-1 {
        fill: #dc1d40;
      }

      .cls-2 {
        fill: #082045;
      }
    </style>
  </defs>
  <path class="cls-2" d="M399.62,419.86c-.1,42.23-.2,84.44-.3,126.67-9.29.82-18.59,1.72-27.87,2.69.04-22.5.09-45.01.14-67.51.01-7.6.65-17.14.65-17.14-.27.01-.55.02-.82.03,0,0-1.46,9.57-2.7,17.26-3.8,22.75-7.61,45.72-11.4,68.92-8.33.95-16.65,1.96-24.96,3.04-3.71-22.8-7.43-45.84-11.17-69.15-1.21-7.86-2.64-17.77-2.64-17.78-.27.02-.54.03-.81.04,0,.01.6,9.96.59,17.94-.02,23.62-.05,47.24-.07,70.85-8.65,1.21-17.28,2.47-25.91,3.82v-139.47c13.67-.03,27.35-.06,41.01-.09,3.13,20.64,6.23,41.1,9.34,61.39,1.02,6.76,1.82,18.38,1.82,18.38.27-.02.54-.04.82-.06,0,0,.84-11.73,1.87-18.58,3.17-20.57,6.35-40.96,9.53-61.18,14.3-.02,28.59-.05,42.88-.07Z"/>
  <path class="cls-2" d="M467.92,419.78c-14.91.02-29.82.03-44.72.05-6.31,41.61-12.63,83.67-18.95,126.28,10.25-.87,20.52-1.64,30.8-2.31.76-8.74,1.53-17.48,2.3-26.2,4.87-.24,9.72-.47,14.59-.68.73,8.59,1.47,17.17,2.21,25.74,10.75-.57,21.51-1.05,32.27-1.4-6.19-40.28-12.36-80.74-18.5-121.48ZM439.25,494.78c1.4-14.13,2.79-28.22,4.19-42.29.63-5.45.84-10.9.84-10.9.34,0,.69-.01,1.03-.01,0,0,.4,5.44.8,10.87,1.26,14,2.54,27.98,3.81,41.93-3.56.12-7.12.26-10.67.4Z"/>
  <path class="cls-2" d="M569.52,522.84c-.01-5.91-.01-11.84-.02-17.77-.01-13.32-5.56-22.3-21.38-23.05-1.23-.06-2.46-.13-3.69-.19v-.52c1.02-.06,2.05-.13,3.07-.18,12.33-.67,21.37-6.44,21.35-24.22,0-3.5,0-6.99-.01-10.49-.01-17.78-9.04-26.67-36.73-26.66-13.53,0-27.08,0-40.61.01-.05,40.45-.09,80.88-.14,121.33,10.63-.32,21.25-.54,31.88-.65.01-15.86.02-31.72.02-47.56,2.26-.02,4.52-.03,6.78-.04,5.14-.02,7.61,2.11,7.6,6.54v26.78c0,7.09,1.65,11.53,3.08,14.19,10.63,0,21.26.11,31.89.32v-1.78c-2.68-2.72-3.09-8.06-3.09-16.06ZM537.24,463.75c0,4.43-2.47,6.56-7.6,6.57-2.19,0-4.38.01-6.57.02,0-10.34.01-20.7.01-31.06,2.19,0,4.38,0,6.57-.01,5.13,0,7.59,2.13,7.59,6.57v17.91Z"/>
  <path class="cls-2" d="M657.02,513.22c.04,20.28-6.08,32.97-38.34,31.21-32.48-1.53-38.67-14.38-38.69-34.03-.02-20-.04-40.01-.05-60-.02-19.58,6.11-32.56,38.52-32.59,32.2-.06,38.38,13.36,38.42,33.58.02,4.83.03,9.66.04,14.49-10.54-.29-21.06-.54-31.6-.75-.01-7.17-.03-14.33-.04-21.49-.01-3.62-.83-7.06-6.79-7.1-5.95-.04-6.77,3.37-6.76,6.96.04,24.79.08,49.58.13,74.38,0,3.59.82,7.03,6.78,7.27,5.96.26,6.78-3.13,6.77-6.75-.01-8.24-.03-16.49-.04-24.73,10.54.33,21.07.73,31.61,1.2.01,6.12.02,12.23.04,18.35Z"/>
  <path class="cls-2" d="M725.36,551.01c-20.05-2.32-40.15-4.26-60.27-5.81-.09-41.8-.18-83.58-.27-125.36,20.1.02,40.19.06,60.3.1,0,7.32.02,14.64.04,21.96-9.51-.19-19-.37-28.5-.54.02,9.8.04,19.59.06,29.39,9.09.35,18.17.75,27.27,1.17,0,7.71.03,15.4.04,23.11-9.08-.61-18.17-1.16-27.26-1.68.02,10.8.05,21.59.07,32.4,9.5.76,19,1.6,28.48,2.51.01,7.59.03,15.17.04,22.75Z"/>
  <path class="cls-2" d="M788.28,535.33v24.21c-18.75-2.92-37.54-5.51-56.37-7.76-.07-43.95-.16-87.89-.24-131.83,10.6.02,21.2.04,31.8.06.03,37.44.07,74.87.1,112.3,8.24.96,16.48,1.96,24.71,3.02Z"/>
  <g>
    <g>
      <path class="cls-1" d="M389.07,662.19c0-26.45,0-52.9,0-79.35,13.74-1.24,27.47-2.35,41.22-3.36,2.8-.19,5.22.71,7.25,2.71,2.03,2,3.05,4.51,3.05,7.49,0,12.81.02,25.62.03,38.43,0,2.09-.52,4.03-1.57,5.79-1.05,1.76-2.48,3.09-4.28,3.97,2.4,9.68,3.6,14.54,5.99,24.31h-17.98c-2.33-9.19-3.49-13.76-5.82-22.86-4.16.09-6.24.14-10.4.23,0,9.05,0,13.57,0,22.62-6.99,0-10.49,0-17.49,0ZM406.54,623.37c6.66-.27,9.99-.39,16.65-.62,0-10.52,0-15.79-.02-26.31-6.66.39-9.99.6-16.64,1.04,0,10.36,0,15.54.01,25.9Z"/>
      <path class="cls-1" d="M448.66,662.19c4.7-23.32,9.36-46.64,14-69.96-1.27-5.8-1.9-8.7-3.17-14.48,12.86-.64,19.3-.9,32.17-1.28,5.37,28.57,10.72,57.14,16.04,85.72-7.02,0-10.53,0-17.54,0-1.15-6.86-1.73-10.28-2.89-17.13-7.19.05-10.79.07-17.99.14-1.19,6.81-1.79,10.21-2.98,16.99h-17.65ZM472.21,628.21c4.94-.08,7.41-.12,12.34-.19-2.22-13.66-3.33-20.47-5.56-34.06-.33.01-.5.02-.83.03-2.38,13.72-3.57,20.57-5.96,34.22Z"/>
      <path class="cls-1" d="M525.91,662.19c-2.84,0-5.28-1.1-7.31-3.31-2.03-2.2-3.04-4.83-3.05-7.88,0-4.84,0-7.25,0-12.09,7-1.76,10.49-2.64,17.49-4.38,0,4.15,0,6.22,0,10.37,5.07,0,7.6,0,12.67,0,0-5.86,0-8.79,0-14.64-9.52-4.43-14.28-6.63-23.81-10.99-1.92-.87-3.46-2.23-4.62-4.06-1.16-1.84-1.75-3.88-1.75-6.12,0-8.76,0-13.14,0-21.89,0-3.09,1.01-5.75,3.04-7.98,2.03-2.23,4.47-3.36,7.31-3.39,10.79-.09,16.19-.09,26.98,0,2.81.02,5.23,1.16,7.28,3.39,2.05,2.23,3.07,4.89,3.07,7.98,0,4.81,0,7.22,0,12.03-7,1.65-10.5,2.5-17.5,4.21,0-4.15,0-6.22,0-10.36-5.07-.02-7.61-.02-12.68,0,0,4.84,0,7.27,0,12.11,9.52,4.36,14.29,6.58,23.81,11.01,1.92.9,3.46,2.27,4.62,4.12,1.16,1.85,1.74,3.9,1.74,6.15,0,9.82,0,14.72,0,24.54,0,3.05-1.02,5.67-3.05,7.88-2.03,2.21-4.47,3.31-7.3,3.31h-26.95Z"/>
      <path class="cls-1" d="M650.8,662.19c0-10.88.01-16.33.02-27.21-7.04-18.83-13.95-37.71-20.82-56.61,7.48.43,11.22.66,18.7,1.18,3.57,11.74,7.18,23.48,10.82,35.21,4.32-13.58,6.48-20.3,10.8-33.57,7.47.62,11.2.95,18.67,1.65-7.06,17.48-14,35.01-20.85,52.57,0,10.71,0,16.07-.01,26.78h-17.32Z"/>
      <path class="cls-1" d="M584.79,662.19c-2.84,0-5.27-1.1-7.3-3.3-2.03-2.2-3.04-4.82-3.04-7.86,0-4.82,0-7.24,0-12.06,7-1.69,10.5-2.52,17.49-4.16,0,4.1,0,6.16,0,10.26,5.07.03,7.6.05,12.67.09,0-5.77,0-8.65,0-14.42-9.52-4.49-14.27-6.75-23.79-11.26-1.92-.9-3.46-2.28-4.62-4.13-1.16-1.85-1.74-3.9-1.74-6.14,0-8.73,0-13.1,0-21.84,0-3.08,1.02-5.7,3.05-7.85,2.03-2.15,4.47-3.19,7.31-3.1,10.79.31,16.18.51,26.96,1,2.81.13,5.23,1.33,7.28,3.59,2.05,2.26,3.07,4.89,3.07,7.91,0,4.7,0,7.05,0,11.75-7,1.43-10.5,2.16-17.49,3.67,0-4.08,0-6.12,0-10.2-5.07-.17-7.61-.24-12.68-.38,0,4.8,0,7.19,0,11.99,9.52,4.55,14.28,6.84,23.79,11.37,1.92.92,3.46,2.29,4.62,4.12s1.74,3.84,1.74,6.04c0,9.59-.01,14.38-.02,23.97,0,2.98-1.02,5.54-3.05,7.69-2.03,2.15-4.47,3.24-7.31,3.24-10.78,0-16.17,0-26.95,0Z"/>
    </g>
    <path class="cls-1" d="M272.83,622.3c34.46-2.05,68.93-3.7,103.41-4.96v9.94c-34.48-1.27-68.96-2.92-103.41-4.97Z"/>
    <path class="cls-1" d="M807.17,622.3c-40.75,2.44-81.54,4.32-122.35,5.63,1.47-3.73,2.94-7.44,4.4-11.13,39.33,1.31,78.66,3.14,117.95,5.5Z"/>
  </g>
</svg>