<?xml version="1.0" encoding="UTF-8"?>
<svg id="Camada_1" data-name="Camada 1" xmlns="http://www.w3.org/2000/svg" viewBox="0 0 1080 1080">
  <defs>
    <style>
      .cls-1 {
        fill: #082045;
      }
    </style>
  </defs>
  <g>
    <path class="cls-1" d="M531.68,607.84c-1.71,0-3.42,0-5.13,0,0,8.08,0,16.16,0,24.23,1.71,0,3.42-.02,5.13-.02,4,0,5.92-1.67,5.92-5.13v-13.97c0-3.46-1.92-5.12-5.92-5.12ZM531.68,607.84c-1.71,0-3.42,0-5.13,0,0,8.08,0,16.16,0,24.23,1.71,0,3.42-.02,5.13-.02,4,0,5.92-1.67,5.92-5.13v-13.97c0-3.46-1.92-5.12-5.92-5.12ZM466.52,618.12c-.32-4.24-.62-8.48-.62-8.48-.27,0-.54,0-.8,0,0,0-.17,4.25-.65,8.5-1.09,10.97-2.18,21.96-3.27,32.99,2.77-.11,5.55-.21,8.32-.31-.99-10.89-1.99-21.79-2.97-32.71ZM531.68,607.84c-1.71,0-3.42,0-5.13,0,0,8.08,0,16.16,0,24.23,1.71,0,3.42-.02,5.13-.02,4,0,5.92-1.67,5.92-5.13v-13.97c0-3.46-1.92-5.12-5.92-5.12ZM531.68,607.84c-1.71,0-3.42,0-5.13,0,0,8.08,0,16.16,0,24.23,1.71,0,3.42-.02,5.13-.02,4,0,5.92-1.67,5.92-5.13v-13.97c0-3.46-1.92-5.12-5.92-5.12ZM466.52,618.12c-.32-4.24-.62-8.48-.62-8.48-.27,0-.54,0-.8,0,0,0-.17,4.25-.65,8.5-1.09,10.97-2.18,21.96-3.27,32.99,2.77-.11,5.55-.21,8.32-.31-.99-10.89-1.99-21.79-2.97-32.71ZM466.52,618.12c-.32-4.24-.62-8.48-.62-8.48-.27,0-.54,0-.8,0,0,0-.17,4.25-.65,8.5-1.09,10.97-2.18,21.96-3.27,32.99,2.77-.11,5.55-.21,8.32-.31-.99-10.89-1.99-21.79-2.97-32.71ZM531.68,607.84c-1.71,0-3.42,0-5.13,0,0,8.08,0,16.16,0,24.23,1.71,0,3.42-.02,5.13-.02,4,0,5.92-1.67,5.92-5.13v-13.97c0-3.46-1.92-5.12-5.92-5.12ZM531.68,607.84c-1.71,0-3.42,0-5.13,0,0,8.08,0,16.16,0,24.23,1.71,0,3.42-.02,5.13-.02,4,0,5.92-1.67,5.92-5.13v-13.97c0-3.46-1.92-5.12-5.92-5.12ZM466.52,618.12c-.32-4.24-.62-8.48-.62-8.48-.27,0-.54,0-.8,0,0,0-.17,4.25-.65,8.5-1.09,10.97-2.18,21.96-3.27,32.99,2.77-.11,5.55-.21,8.32-.31-.99-10.89-1.99-21.79-2.97-32.71ZM466.52,618.12c-.32-4.24-.62-8.48-.62-8.48-.27,0-.54,0-.8,0,0,0-.17,4.25-.65,8.5-1.09,10.97-2.18,21.96-3.27,32.99,2.77-.11,5.55-.21,8.32-.31-.99-10.89-1.99-21.79-2.97-32.71ZM531.68,607.84c-1.71,0-3.42,0-5.13,0,0,8.08,0,16.16,0,24.23,1.71,0,3.42-.02,5.13-.02,4,0,5.92-1.67,5.92-5.13v-13.97c0-3.46-1.92-5.12-5.92-5.12ZM531.68,607.84c-1.71,0-3.42,0-5.13,0,0,8.08,0,16.16,0,24.23,1.71,0,3.42-.02,5.13-.02,4,0,5.92-1.67,5.92-5.13v-13.97c0-3.46-1.92-5.12-5.92-5.12ZM466.52,618.12c-.32-4.24-.62-8.48-.62-8.48-.27,0-.54,0-.8,0,0,0-.17,4.25-.65,8.5-1.09,10.97-2.18,21.96-3.27,32.99,2.77-.11,5.55-.21,8.32-.31-.99-10.89-1.99-21.79-2.97-32.71ZM735.41,667.42c-1.93-.25-3.85-.5-5.78-.73l-.08-89.33-36.26-13.82c3.39-9.68,5.93-19.73,7.53-30.09,6.7-43.82-4.06-87.64-30.32-123.35-8.06-11-17.32-20.8-27.52-29.33.15-5.57-.3-11.05-1.36-16.38-1.67-8.22-4.74-15.74-9.12-22.36-2.56-3.83-5.48-7.27-8.67-10.17-3.64-3.3-7.64-5.85-11.08-7.93l-3.09-1.89c-2.3-1.42-5.14-3.18-8.06-4.74-4.13-2.21-8.42-3.9-12.79-5.03-2.17-.55-4.52-1.1-7.01-1.31-.52-.06-1.06-.08-1.9-.1h-.22c-.11-.05-.22-.11-.31-.17-3.31-2.17-7.21-4.65-11.46-6.76-7.64-3.81-16.29-5.76-24.83-5.63-7.9.11-15.84,1.86-23.62,5.2-7.51,3.23-14.49,7.79-20.77,13.57-6.46,5.94-11.94,12.97-16.24,20.85-.49.88-.95,1.78-1.38,2.67-.07.13-.13.25-.2.39-2.11,4.26-3.81,8.65-5.11,13.14-.04.02-.09.03-.13.06-.17.5-.34,1-.47,1.51-1.64,5.92-2.49,12.04-2.49,18.17v.09s.03-.02.04-.02c0,.28,0,.54,0,.82,0,2.39.12,4.78.33,7.16.02.13.02.26.04.39,0,0-.02,0-.02.02.32,3.3.8,6.57,1.65,9.79,1.55,5.92,3.98,11.64,7.34,16.78-4.7-4.28-8.32-9.81-10.77-15.9-.6-1.51-1.14-3.08-1.62-4.68-.35-1.25-.63-2.5-.91-3.72-21.91,12.06-40.5,29.81-53.49,51.6,3.8-.88,7.77-1.74,11.91-2.27,4.26-.56,8.63-.72,12.94-.43,4.32.28,8.62,1.01,12.8,2.17,4.16,1.14,8.35,2.86,12.06,4.92,3.76,2.06,7.12,4.29,10.49,6.66,3.33,2.36,6.67,5.03,9.64,7.77,5.28,4.92,10.3,10.43,14.26,16.75,1.63-.21,3.18-.31,4.63-.52,2.34-.2,4.87-.49,7.47-.62,2.59-.18,5.35-.02,8.02.34,2.67.37,5.26.99,7.77,1.78,2.49.87,4.89,1.93,7.16,3.08,2.26,1.19,4.42,2.27,6.6,3.67,2.17,1.36,4.29,2.93,6.11,4.73,1.77,1.88,3.42,3.8,4.57,6.04-3.09-3.82-7.13-6.81-11.58-8.88-4.47-2.03-8.97-4.04-13.74-5.25-4.75-1.25-9.71-1.69-14.6-1.25-2.45.19-4.88.54-7.31.8-2.44.31-4.9.42-7.31.89h-.02c-2.04-3.36-4.42-6.49-7.02-9.42-2.62-2.93-5.47-5.66-8.42-8.24-5.89-5.2-12.43-9.64-19.33-13.38-6.93-3.72-14.74-5.67-22.58-6.06-7.87-.47-15.68,1.03-23.26,3l-5.88,2.09c-6.6,13.01-11.28,27.27-13.6,42.47-4.18,27.32-.17,54.01,10.16,77.63-2.43-.65-5.16-1.07-8.26-1.08h-.62c-9.77-24.39-12.91-51.04-8.84-77.7,7.42-48.5,37.59-87.99,77.98-109.28-.09-.91-.16-1.81-.24-2.72-.4-5.41-.03-11.1,1.02-16.54-49.32,22.45-86.77,68.52-95.56,125.97-4.19,27.42-1.55,54.84,7.45,80.27l-49.06,13.88v142.32l17.87-2.78c6.67-1.04,13.4-2.03,19.96-2.94l5.44-.76,5.42-.7c6.36-.83,12.83-1.63,19.23-2.34l5.4-.62,5.49-.58c7.11-.76,14.33-1.44,21.48-2.07l3-.26.79-.07c7.86-.66,15.83-1.26,23.73-1.78l7.35-.48,7.37-.39c8.29-.44,16.66-.8,24.87-1.09l3.05-.1.75-.02c8.13-.25,16.4-.42,24.57-.5l6.75-.07h6.73c8.12,0,16.38.08,24.57.24l15.85.32v-.77c5.59,1.88,12.12,2.99,19.61,3.35,1.81.1,3.57.15,5.23.15,6.15,0,11.57-.68,16.31-2.04v1.36l14.26,1.1c15.42,1.2,31.05,2.71,46.43,4.48l1.5.17,3.55.43c14.43,1.72,29.05,3.73,43.44,5.97l17.85,2.78v-50.56l-13.5-1.74ZM569.36,320.73c2.2-.31,4.43-.48,6.66-.5,7.53-.06,15.12,1.78,21.65,5.56-3.93-1.04-8.02-1.33-12.08-1.29-6.79.07-13.55,1.38-19.87,3.83-1.64.64-3.29,1.33-4.78,2.28-.58.37-1.18.9-1.89.98-.85.09-1.54-.54-2.18-1.01-.73-.55-1.55-.98-2.32-1.48-.73-.47-1.42-1.1-2.29-1.29-1.44-.31-2.57.82-3.71,1.49,2.3,1.37,4.61,2.75,6.91,4.13-.67.45-1.35.9-2.01,1.37-.56.41-1.1.9-1.73,1.2-1.16.54-2.16-.2-3.1-.81-1.19-.78-2.47-1.4-3.64-2.21-.41-.28-.85-.62-1.38-.54-.55.09-.94.56-1.33.92-1.98,1.81-4.32,3.22-6.42,4.9-4.43,3.53-8.48,7.57-12.3,11.76,2.3-3.86,5.18-7.34,8.32-10.55,5.14-5.28,11.1-9.8,17.67-13.15,6.15-3.13,12.91-5.2,19.83-5.59ZM534.08,308.65c4.19-.83,8.46-1.32,12.73-1.21,4.23.1,8.54.83,12.32,2.85-2.6-.33-5.21-.42-7.83-.39-4.43.04-8.87.47-13.16,1.59-1.08.28-2.15.61-3.2.98-.53.19-1.04.39-1.53.66-.39.21-.77.42-1.23.41-.85-.02-1.55-.69-2.22-1.14-1.03-.68-2.11-1.26-3.16-1.89,2.37-.79,4.82-1.37,7.27-1.85ZM522.06,312.52c.59-.36,1.22-.92,1.97-.78.43.08.76.4,1.1.65.47.34.97.61,1.47.89.95.54,1.88,1.12,2.82,1.69-.93.49-1.89.95-2.8,1.48-.64.38-1.27.74-2.04.54-.93-.25-1.68-.96-2.47-1.49-.91-.6-1.85-1.14-2.78-1.69.91-.43,1.86-.77,2.73-1.29ZM487.74,381.99c.28,5.91,1.33,11.76,2.61,17.53-2.42-4.24-3.99-8.93-4.81-13.72.48,3.84,1.25,7.64,2.08,11.43-1.84-3.21-3.18-6.7-4.09-10.29-2.96-11.7-1.23-24.55,4.87-34.98-1.73,7.42-3.27,14.95-3.45,22.6,0,.15,0,.3,0,.46.44-7.27,2.49-14.48,6.18-20.78-.79,3.41-1.59,6.82-2.19,10.26-1,5.77-1.47,11.64-1.2,17.49ZM494.54,366.07c-1.9,7.28-2.67,14.86-2.16,22.37-.11-.84-.21-1.69-.28-2.54-.6-6.67-.17-13.44,1.28-19.97,1.54-6.97,4.19-13.68,7.72-19.87,3.55-6.21,8-11.91,13.2-16.82,4.91-4.63,10.5-8.54,16.59-11.44,5.81-2.76,12.09-4.58,18.52-5.12,4.98-.36,10.04.04,14.83,1.44-.96-.12-1.93-.21-2.89-.28-7.2-.5-14.48.48-21.35,2.67-7.05,2.26-13.67,5.82-19.54,10.34-6.27,4.83-11.68,10.75-16.05,17.35-4.43,6.69-7.84,14.09-9.88,21.86ZM515.95,403.28c.47,5.75,1.54,11.48,3.31,16.98-3.12-4.74-4.84-10.27-5.73-15.85.56,4.83,1.54,9.62,3.04,14.24-3.05-4.63-4.77-10.02-5.67-15.46.57,4.7,1.53,9.36,2.99,13.86-1.7-2.6-2.97-5.46-3.94-8.4-3.21-9.72-3.27-20.39-.58-30.23,1.18-4.25,2.88-8.39,5.26-12.11-2.32,7.46-3.88,15.18-4.24,22.99.68-7.52,2.83-15,6.93-21.39-2.35,7.54-3.92,15.37-4.26,23.27.65-7.61,2.82-15.19,6.96-21.66-.62,1.97-1.18,3.97-1.68,5.98-1.67,6.73-2.64,13.64-2.66,20.58.23-8.71,2.41-17.51,7.13-24.89-1.18,3.79-2.19,7.64-2.93,11.55-2.45,12.97-1.88,26.6,2.19,39.19-3.65-5.55-5.42-12.11-6.11-18.65ZM475.81,507.18c.09-.62-.26-1.26-.24-1.89.02-.69.31-1.37.69-1.93.82-1.21,2.13-1.99,3.34-2.76,4.84-3.08,10.22-5.41,15.87-6.5,2.93-.57,5.89-.73,8.87-.69.7,0,1.4,0,2.1.06.17.02,1.04.15.95-.25-.06-.29-.77-.24-.99-.24-.54,0-1.09-.06-1.63-.11-6.09-.57-12.26-.85-18.37-.31-1.51.13-3.01.31-4.5.54-1.1.17-2.18.5-3.27.69-.28.05-.77.14-.69-.27.06-.39.76-.66,1.07-.81,1.28-.62,2.54-1.25,3.85-1.8,5.52-2.34,11.35-3.87,17.29-4.72,3.16-.45,6.34-.75,9.52-1.03,3-.26,6.03-.43,9.03-.09,5.9.66,11.49,2.99,16.73,5.7,2.75,1.41,5.48,3.06,7.56,5.37.99,1.11,1.76,2.38,2.51,3.67.37.65.84,1.29,1.06,2,.12.4.13,1.1.62,1.23-.73-.21-1.36-.67-2.01-1.06-.63-.36-1.28-.7-1.94-1.02-1.4-.67-2.84-1.23-4.26-1.85-1.38-.62-2.74-1.25-4.16-1.76-.58-.21-1.18-.42-1.77-.59-.24-.07-.72-.24-.6.17.12.4,1.08.83,1.4,1.03.61.39,1.24.74,1.85,1.12,4.92,3.12,9.39,7.16,13.1,11.64,1.68,2.04,3.42,4.17,4.3,6.7.85,2.45.51,5.09-.55,7.41-1.1,2.4-2.87,4.56-5.36,5.56-1.26.51-2.61.77-3.92,1.1-1.44.36-2.88.77-4.31,1.18-2.71.78-5.4,1.62-8.21,1.98-1.25.16-2.52.24-3.77-.03-.24-.05-.88-.28-1.07-.02-.21.32.34.54.55.62,1.1.43,2.3.7,3.43,1.05,1.47.44,2.94.87,4.43,1.26,2.86.76,5.67,1.16,8.64,1.2,2.93.05,5.85-.14,8.77-.53,2.72-.37,5.44-.84,8.17-.39,5.9,1,10.52,5.36,14.82,9.19,2.27,2.02,4.53,4.13,7.19,5.64,1.33.75,2.76,1.28,4.21,1.77,1.41.47,2.81.99,4.24,1.39,2.77.79,5.66.91,8.52.8,1.48-.06,2.97-.16,4.44-.4.63-.1,1.27-.26,1.93-.24.17,0,.39.05.59.06-.38-.05-.8-.28-1.07-.36-.95-.3-1.98-.23-2.95-.4-1.13-.21-2.21-.64-3.29-1.02-1.05-.37-2.11-.75-3.02-1.4-.85-.6-1.53-1.4-2.25-2.13-.72-.73-1.48-1.44-2.19-2.17-1.4-1.44-2.64-3.01-3.77-4.66-1.09-1.59-2.14-3.24-2.85-5.05-.72-1.81-.96-3.76-1.33-5.66-.77-4.02-1.93-7.95-2.65-11.98-.35-2-.6-4.02-.79-6.05-.09-1.03-.18-2.05-.19-3.08,0-.5,0-1-.02-1.5-.02-.32-.08-.68.06-.99-.06.25.21.56.3.79.13.38.11.8.14,1.2.06.9.24,1.8.45,2.67.48,1.96,1.23,3.83,1.98,5.69.77,1.91,1.5,3.83,2.26,5.74,1.43,3.55,3.35,6.85,5.74,9.83,1.28,1.59,2.68,3.07,4.12,4.51.72.72,1.44,1.44,2.15,2.16.32.32.83,1.06,1.3,1.19.62.17.12-.7-.04-.89-.48-.57-.99-1.03-1.41-1.64-1.1-1.6-1.93-3.4-2.6-5.21-.67-1.8-1.21-3.68-1.48-5.58-.26-1.95-.13-3.89.23-5.81.37-1.96.92-3.89,1.38-5.83.48-2.03.83-4.07,1.19-6.12.71-4.02,1.9-7.9,3.87-11.49.95-1.73,2.04-3.42,3.35-4.88.16-.17.76-.66.62-.96-.15-.31-.69-.03-.91.06-.77.35-1.39.94-2.07,1.4-1.63,1.1-3.29,2.15-4.72,3.52-.65.63-1.08,1.51-1.8,2.07-.68.52-1.02-.17-1.05-.8-.04-.99.04-1.99,0-2.98-.05-1.03-.06-2.07,0-3.09.13-1.96.53-3.88,1.06-5.76,1.14-3.98,2.92-7.74,4.44-11.58,1.46-3.66,2.42-7.51,2.9-11.42.47-3.85.54-7.76.11-11.61-.22-1.96-.57-3.91-1.07-5.82-.24-.92-.49-1.84-.76-2.75-.09-.31-.72-1.65-.77-.6-.05.87.35,1.81.47,2.66.15.96.19,1.93.16,2.9-.06,1.96-.39,3.93-.8,5.85-.44,2.02-1.03,4-1.56,6-.28,1.03-.54,2.07-.8,3.11-.21.87-.32,1.96-.75,2.74-.4.72-.75.34-.81-.29-.09-.91.02-1.87.04-2.78.06-2.06.1-4.13.17-6.19.07-1.97.15-3.94.13-5.91,0-1-.05-2-.12-3-.06-.85-.27-1.72-.28-2.57,0-1.88,2.13-2.29,3.48-3.01,1.78-.96,3.45-2.09,5.1-3.23,3.35-2.31,6.49-4.91,9.42-7.73,1.47,4.02,2.96,8.06,4.35,12.11,2.73,7.91,5.03,15.98,6.53,24.21.75,4.11,1.4,8.26,1.62,12.43.21,4.16-.06,8.32-.6,12.44-.55,4.25-1.45,8.44-1.98,12.7-.51,4.13-.83,8.32-.65,12.5.17,4.05.66,8.09.39,12.14-.28,4.15-1.27,8.23-2.46,12.2-.29.98-.54,2-1,2.91-.21.41-.7.97-.62,1.46.21,1.14,1.64-.97,1.82-1.25,2.24-3.51,3.7-7.48,4.5-11.56.8-4.13.95-8.34,1.07-12.53.06-2.15.09-4.3.24-6.44.04-.56.43-5.61.95-5.46.52.14.36,2.04.36,2.41,0,1.07.07,2.11.17,3.16.21,2.07.46,4.14.6,6.22.3,4.26.38,8.54.24,12.8-.13,4.35-.45,8.7-.62,13.05-.09,2.16-.12,4.34-.35,6.49-.22,1.96-.73,3.9-1.97,5.47-2.23,2.81-5.89,3.91-9.17,4.95-.91.29-1.83.56-2.71.94-.24.11-1.18.66-1.36.26-.17-.38.81-.77,1.04-.88.9-.49,1.76-1.04,2.65-1.53,3.31-1.81,6.75-3.76,8.09-7.52.69-1.93.77-3.94,1.02-5.95.02-.24.39-1.71-.19-1.61-.35.06-.43.98-.47,1.23-.65,3.7-3.42,6.6-6.74,8.15-1.89.89-3.9,1.55-5.84,2.35-1.97.81-3.88,1.77-5.82,2.64-3.46,1.58-7.12,2.85-10.94,3.12-4.01.28-7.98-.62-11.78-1.79-3.98-1.22-7.91-2.69-12.02-3.46-4.09-.77-8.24-.62-12.38-.47-4.14.14-8.3.47-12.45.41-4.41-.07-8.83-.36-13.24-.52-8.23-.32-16.51-.82-24.47-3.09-8.17-2.34-15.77-6.7-20.8-13.7-1.04-1.45-1.19-3.16-.22-4.69.98-1.56,2.74-2.31,4.42-2.88,3.85-1.3,7.76-2.41,11.78-3.05,2.08-.33,4.19-.54,6.3-.65,1.06-.06,2.11-.12,3.18-.12.4,0,1.72.27,2.05-.07.48-.49-.77-.65-1.01-.67-.88-.08-1.74-.21-2.6-.39-2.11-.43-4.15-1.04-6.16-1.8-8.13-3.05-15.5-8.18-22.11-13.74-1.63-1.37-3.12-2.93-4.77-4.28-.26-.21-.69-.65-1.06-.69-.43-.06-.5.29-.42.64.25.99.69,1.97,1.03,2.93.33.95.68,1.89,1.14,2.79.45.88,1.1,1.63,1.51,2.52.12.26.34.7.04.92-.25.17-.61-.09-.83-.19-.95-.46-1.96-.77-2.92-1.21-1.47-.68-2.94-1.32-4.33-2.15-2.25-1.34-4.28-3.25-5.32-5.7-.49-1.16-.78-2.46-.42-3.7.37-1.29,1.45-2.3,2.68-2.77,1.24-.47,2.72-.42,3.91.17.47.24,2.46,2.09,2.63.8ZM572.14,456.97c-.02-.6-.03-1.2-.06-1.8-.02-.46-.13-.98.06-1.41.34-.8,1.31-.56,2-.65,0,1.28.03,2.56.08,3.83.09,2.56.21,5.11,0,7.67-.2,2.48-.57,4.94-.48,7.43.09,2.45.48,4.89.47,7.35,0,2.52-.32,5.02-.67,7.5-.17,1.2-.33,2.4-.49,3.61-.02.14-.09.92-.41.79-.2-.07-.2-.56-.21-.72-.2-2.27-.41-4.54-.57-6.82-.18-2.49-.36-5.01-.11-7.49.07-.73.32-1.44.4-2.17.04-.38,0-1.49-.69-1.18-.49.23-.62,1.18-.7,1.63-.18.89-.41,1.74-.73,2.6-.89,2.41-1.74,4.8-2.36,7.29-1.25,4.97-2.11,10.04-4.13,14.79-1,2.36-2.3,4.57-3.17,6.98-.17.45-.32,1-.65,1.37-.54.63-.53-.57-.47-.89.38-2.17,1.12-4.33,1.8-6.42.8-2.43,1.66-4.84,2.3-7.31,1.25-4.82,1.55-9.86,3.22-14.59.85-2.44,2.07-4.72,3.05-7.12.96-2.37,1.63-4.86,2.16-7.37.47-2.26.43-4.6.36-6.9ZM572.21,350.78c-.95.73-1.95,1.38-2.85,2.17-.61.53-1.19,1.08-2.04.74-1.1-.44-2.07-1.22-3.07-1.83-1.07-.65-2.15-1.29-3.22-1.93,1.43-1.09,2.86-2.18,4.29-3.27,2.3,1.37,4.59,2.75,6.89,4.12ZM569.03,344.47c2.59-1.31,5.3-2.34,8.06-3.24,8.07-2.63,17.49-4.3,25.29.04-2.2-.24-4.43-.13-6.64.13-7.03.8-13.82,3.36-19.72,7.26-2.34-1.4-4.66-2.78-7-4.18ZM564.4,360.69c6.63-6.62,14.67-12.05,23.74-14.66,8.58-2.48,18.34-2.19,26.16,2.48,2.23,1.33,4.28,2.98,6.06,4.87,6.07,6.42,8.9,15.3,9.44,23.98.61,9.8-1.56,19.63-5.44,28.59-4.17,9.63-10.35,18.41-18.19,25.38-6.89,6.13-15.15,11.01-24.26,12.84-8.94,1.8-18.86.24-26.07-5.58-6.92-5.58-10.68-14.24-11.88-22.89-1.32-9.54.23-19.31,3.49-28.31,3.63-9.99,9.44-19.19,16.95-26.71ZM406.14,513.42c-.32-8.16.13-16.47,1.4-24.83,1.54-10.07,4.21-19.69,7.83-28.76,1.73.88,3.53,1.63,5.36,2.21,2.77.88,5.67,1.22,8.45,2.05.21.06,1.05.42,1.07-.04.02-.32-.55-.49-.78-.58-1.33-.54-2.53-1.29-3.75-2.04-2.56-1.57-5.25-2.92-7.71-4.65-.33-.24-.71-.51-1.01-.84.47-1.06.94-2.11,1.43-3.16.24-.1.49-.19.71-.26,1.36-.44,2.76-.68,4.16-.95,1.46-.3,2.9-.69,4.35-.98,5.29-1.05,10.78-.96,16.09-.04,5.69.99,11.28,2.98,15.94,6.45,2.34,1.74,4.56,3.73,6.49,5.92,1.78,2.02,3.13,4.37,4.25,6.81,1.08,2.34,2.26,4.89,2.24,7.53-.02,2.72-1.7,4.84-3.88,6.31-4.28,2.9-9.56,3.83-14.63,4.22-1.38.1-2.79.24-4.17.11-.68-.06-1.31-.27-1.97-.38-.34-.06-.84-.06-.53.42.25.38.89.54,1.29.7.64.26,1.28.5,1.91.78,1.11.47,2.28,1.12,2.82,2.26.53,1.12.31,2.43.11,3.6-.24,1.39-.63,2.7-1.53,3.81-1.7,2.1-4.23,3.3-6.56,4.54-2.56,1.38-5.16,2.71-7.93,3.61-2.67.88-5.44,1.39-8.2,1.89-6.14,1.1-12.28,2.15-18.42,3.29-1.62.29-3.22.66-4.83,1ZM430.02,691.5c-7.25.64-14.5,1.34-21.74,2.1.03-17.55.07-35.11.11-52.66,0-5.93.5-13.37.5-13.37-.21,0-.43.02-.64.02,0,0-1.14,7.46-2.11,13.47-2.97,17.74-5.93,35.66-8.89,53.76-6.5.74-12.99,1.53-19.47,2.37-2.9-17.79-5.8-35.76-8.71-53.94-.95-6.14-2.06-13.86-2.06-13.87-.21.02-.43.02-.64.03,0,0,.47,7.76.47,13.99-.02,18.43-.04,36.85-.06,55.27-6.75.94-13.48,1.93-20.21,2.97v-108.79c10.67-.02,21.33-.05,31.99-.07,2.44,16.1,4.86,32.06,7.28,47.89.8,5.28,1.42,14.34,1.42,14.34.21-.02.43-.03.64-.05,0,0,.65-9.15,1.46-14.49,2.48-16.05,4.95-31.95,7.44-47.73,11.15-.02,22.3-.03,33.44-.05-.08,32.94-.15,65.87-.23,98.81ZM432.08,556.87c-.47.43-.95.82-1.4,1.28-.5.53-1.02,1.05-1.53,1.58-1.96,1.99-3.98,3.92-6.11,5.74-.79.68-1.72,1.39-2.67,2.1-.6-1.17-1.2-2.34-1.76-3.52,2.26-1.06,4.39-2.37,6.56-3.63,1.18-.69,2.37-1.38,3.53-2.09,1.03-.63,2.01-1.34,3.05-1.95.1-.06.65-.43.79-.31.21.18-.33.68-.45.8ZM430.16,533.08c-1.85.32-3.64.94-5.38,1.66-3.63,1.5-7.16,3.26-10.56,5.22-.86.5-1.67,1.07-2.52,1.59-.35.21-.77.48-1.19.58-.06-.25-.12-.51-.19-.77.29-.31.63-.58.96-.84,1.5-1.18,2.86-2.51,4.31-3.74.75-.65,1.51-1.27,2.31-1.85.76-.55,1.6-.95,2.35-1.51.38-.28,1.2-.92.39-1.23-.5-.19-1.14-.06-1.65,0-1.9.22-3.81.41-5.68.81-1.58.34-3.1.85-4.6,1.44-.24-1.15-.49-2.3-.69-3.47.36-.13.69-.28,1.05-.41,5.46-1.96,11.16-3.31,16.96-3.64,2.97-.17,5.96-.08,8.88.54,3.04.65,5.92,1.85,8.74,3.12,2.98,1.35,5.91,2.82,8.78,4.4,1.41.79,2.85,1.56,4.17,2.49.62.43,1.21.94,1.89,1.28.3.15.88.3.92.71-.1-.36-.94-.43-1.2-.5-1.82-.48-3.48-1.48-5.24-2.13-1.91-.72-3.87-1.26-5.85-1.76-3.79-.95-7.66-1.64-11.56-2.06-1.81-.2-3.62-.25-5.41.06ZM472.79,688.48c-.58-6.68-1.15-13.37-1.73-20.08-3.79.17-7.58.35-11.38.54-.6,6.8-1.2,13.62-1.8,20.43-8.02.52-16.02,1.12-24.02,1.8,4.93-33.24,9.86-66.04,14.78-98.5,11.62-.02,23.25-.02,34.88-.04,4.8,31.78,9.61,63.34,14.44,94.76-8.39.28-16.79.65-25.18,1.09ZM498,577.15c-1.57-.5-3.13-1.03-4.67-1.63-3.08-1.19-6.08-2.6-9.06-4.01-6.12-2.9-12.09-6.11-17.85-9.64-2.84-1.74-5.75-3.33-8.69-4.88-.33-.17-2.75-1.63-3.32-1.66.51-.17,1.05.04,1.55.18.75.21,1.52.32,2.28.53,1.6.43,3.1,1.14,4.6,1.82,1.53.69,3.07,1.37,4.61,2.05,3.01,1.33,6.04,2.61,8.95,4.13,2.96,1.54,5.76,3.35,8.74,4.84,3,1.49,6.16,2.6,9.28,3.79,4.45,1.71,8.95,3.3,13.58,4.47,1.65.43,3.32.8,5,1.1,3.14.56,6.33.82,9.51,1.08,3.31.28,6.62.58,9.95.67,3.22.09,6.45.06,9.66-.1.77-.04,1.55-.13,2.32-.09.35.02,1.32.2.5.5-.65.25-1.41.24-2.1.32-.73.09-1.45.14-2.18.22-6.33.65-12.69,1.08-19.04.74-6.36-.33-12.66-1.41-18.81-3.05-1.61-.43-3.21-.89-4.8-1.4ZM565.2,686.94c-8.29-.17-16.58-.25-24.88-.25-1.12-2.07-2.41-5.54-2.41-11.07v-20.89c0-3.46-1.92-5.12-5.92-5.1-1.77,0-3.53.02-5.29.03,0,12.36,0,24.73-.02,37.1-8.29.09-16.58.25-24.87.5.04-31.55.07-63.09.11-94.64,10.56,0,21.12,0,31.68,0,21.6,0,28.65,6.93,28.65,20.8,0,2.73,0,5.45,0,8.18.02,13.87-7.04,18.37-16.65,18.9-.8.04-1.6.09-2.4.13v.41c.96.05,1.93.1,2.88.15,12.34.58,16.67,7.59,16.68,17.98,0,4.62,0,9.25.02,13.86,0,6.24.32,10.41,2.41,12.53v1.39ZM567.55,570.96c-.62-.21-1.22-.49-1.88-.56-.33-.03-.7-.07-1.01-.19-.41-.15-.25-.33.14-.4.58-.11,1.22.17,1.8.21.78.06,1.57.02,2.35.06,3.29.19,6.56.72,9.79,1.3,2.85.5,5.7,1.1,8.59,1.26,2.72.16,5.44-.06,8.13-.51,2.42-.41,4.88-.95,6.89-2.45.17-.13.68-.59.79-.18.1.37-.66.65-.9.8-1.25.71-2.49,1.4-3.8,1.98-2.47,1.07-5.03,2.01-7.69,2.41-2.73.41-5.5.16-8.21-.2-2.9-.37-5.8-.82-8.6-1.66-1.36-.4-2.71-.88-4.08-1.25-.77-.21-1.55-.37-2.3-.62ZM601.13,689.86c-25.34-1.19-30.17-11.21-30.18-26.54-.02-15.61-.03-31.21-.04-46.81-.02-15.27,4.77-25.4,30.05-25.42,25.12-.05,29.94,10.42,29.97,26.19.02,3.77.02,7.53.03,11.31-8.22-.23-16.43-.43-24.65-.58,0-5.59-.02-11.18-.03-16.76,0-2.82-.65-5.51-5.29-5.54-4.64-.03-5.28,2.63-5.27,5.43.03,19.34.06,38.67.09,58.02,0,2.8.65,5.48,5.29,5.67,4.65.21,5.29-2.44,5.28-5.26,0-6.43-.02-12.87-.03-19.3,8.22.26,16.44.58,24.66.94,0,4.77.02,9.54.03,14.31.03,15.83-4.74,25.72-29.91,24.35ZM631.65,367.7c-1.85-7.17-5.49-14.07-11.17-18.93-1.67-1.44-3.53-2.62-5.43-3.76-1.93-1.16-3.86-2.33-5.81-3.46-3.68-2.15-7.57-4.05-11.76-4.95-7.25-1.57-14.86-.53-21.79,1.95-7.36,2.64-14.06,6.94-19.84,12.17-6.34,5.73-11.63,12.59-15.68,20.11-4.02,7.44-6.85,15.56-8.06,23.94-1.09,7.53-.9,15.32,1.18,22.67,2.04,7.15,5.98,13.9,11.81,18.6,1.7,1.38,3.57,2.53,5.45,3.65,1.91,1.14,3.83,2.29,5.74,3.42,1.89,1.11,3.79,2.2,5.84,3,1.97.77,4.03,1.29,6.11,1.64,7.32,1.24,14.9.11,21.79-2.54-1.79.8-3.63,1.51-5.49,2.12-6.78,2.24-14.02,3.27-21.16,2.65-7.6-.65-15.04-3.21-21.36-7.49-6.22-4.21-11.27-10.07-14.77-16.72-3.35-6.37-5.27-13.44-5.96-20.58-.72-7.45-.09-15.01,1.66-22.27,1.89-7.85,5.09-15.38,9.33-22.23,4.21-6.78,9.46-12.94,15.58-18.07,5.72-4.8,12.2-8.71,19.19-11.35,6.71-2.53,13.91-3.9,21.1-3.64,7.6.27,15.16,2.38,21.7,6.29,3.48,2.08,6.67,4.64,9.45,7.59,4.07,4.32,7.23,9.44,9.46,14.93,2.24,5.49,3.57,11.34,4.03,17.25-.26-2.01-.64-4.02-1.14-5.98ZM542.09,422.15c-2.31-2.79-3.6-6.3-4.2-9.83.31,2.86.95,5.68,1.74,8.44-1.69-2.04-2.84-4.49-3.6-7.01-1.33-4.43-1.44-9.13-.84-13.68.65-5,2.1-9.96,4.73-14.29-.95,5.8-1.89,11.61-2.22,17.48.29-2.53.8-5.04,1.56-7.48.92-2.88,2.09-5.7,3.76-8.24-.52,2.67-1.04,5.33-1.49,8-.76,4.54-1.36,9.14-1.33,13.76.02,4.34.69,8.67,1.89,12.84ZM637.34,690.46c-.07-32.6-.14-65.19-.21-97.78,15.68.02,31.35.04,47.04.07,0,5.71.02,11.42.03,17.14-7.42-.15-14.82-.29-22.23-.43.02,7.64.03,15.28.05,22.93,7.09.28,14.18.58,21.27.92,0,6.01.02,12.02.03,18.03-7.08-.47-14.17-.91-21.26-1.31.02,8.43.04,16.84.06,25.27,7.41.6,14.82,1.25,22.22,1.96,0,5.92.02,11.83.03,17.74-15.64-1.81-31.32-3.32-47.01-4.54ZM684.02,530.87c-1.74,11.34-4.75,22.26-8.88,32.66h-8.31c4.51-10.6,7.82-21.91,9.64-33.81,7.02-45.92-9.02-90.12-39.42-120.85,1.07-2.65,2-5.34,2.78-8.06,6.13,5.9,11.83,12.34,16.97,19.34,23.57,32.06,33.22,71.39,27.21,110.72ZM733.43,701.65c-14.63-2.27-29.29-4.29-43.98-6.05-.06-34.28-.12-68.56-.18-102.84,8.27.02,16.54.03,24.8.05.02,29.21.06,58.41.08,87.6,6.43.75,12.85,1.53,19.27,2.36v18.88ZM531.68,607.84c-1.71,0-3.42,0-5.13,0,0,8.08,0,16.16,0,24.23,1.71,0,3.42-.02,5.13-.02,4,0,5.92-1.67,5.92-5.13v-13.97c0-3.46-1.92-5.12-5.92-5.12ZM465.89,609.64c-.27,0-.54,0-.8,0,0,0-.17,4.25-.65,8.5-1.09,10.97-2.18,21.96-3.27,32.99,2.77-.11,5.55-.21,8.32-.31-.99-10.89-1.99-21.79-2.97-32.71-.32-4.24-.62-8.48-.62-8.48ZM466.52,618.12c-.32-4.24-.62-8.48-.62-8.48-.27,0-.54,0-.8,0,0,0-.17,4.25-.65,8.5-1.09,10.97-2.18,21.96-3.27,32.99,2.77-.11,5.55-.21,8.32-.31-.99-10.89-1.99-21.79-2.97-32.71ZM531.68,607.84c-1.71,0-3.42,0-5.13,0,0,8.08,0,16.16,0,24.23,1.71,0,3.42-.02,5.13-.02,4,0,5.92-1.67,5.92-5.13v-13.97c0-3.46-1.92-5.12-5.92-5.12ZM531.68,607.84c-1.71,0-3.42,0-5.13,0,0,8.08,0,16.16,0,24.23,1.71,0,3.42-.02,5.13-.02,4,0,5.92-1.67,5.92-5.13v-13.97c0-3.46-1.92-5.12-5.92-5.12ZM466.52,618.12c-.32-4.24-.62-8.48-.62-8.48-.27,0-.54,0-.8,0,0,0-.17,4.25-.65,8.5-1.09,10.97-2.18,21.96-3.27,32.99,2.77-.11,5.55-.21,8.32-.31-.99-10.89-1.99-21.79-2.97-32.71ZM466.52,618.12c-.32-4.24-.62-8.48-.62-8.48-.27,0-.54,0-.8,0,0,0-.17,4.25-.65,8.5-1.09,10.97-2.18,21.96-3.27,32.99,2.77-.11,5.55-.21,8.32-.31-.99-10.89-1.99-21.79-2.97-32.71ZM531.68,607.84c-1.71,0-3.42,0-5.13,0,0,8.08,0,16.16,0,24.23,1.71,0,3.42-.02,5.13-.02,4,0,5.92-1.67,5.92-5.13v-13.97c0-3.46-1.92-5.12-5.92-5.12ZM531.68,607.84c-1.71,0-3.42,0-5.13,0,0,8.08,0,16.16,0,24.23,1.71,0,3.42-.02,5.13-.02,4,0,5.92-1.67,5.92-5.13v-13.97c0-3.46-1.92-5.12-5.92-5.12ZM466.52,618.12c-.32-4.24-.62-8.48-.62-8.48-.27,0-.54,0-.8,0,0,0-.17,4.25-.65,8.5-1.09,10.97-2.18,21.96-3.27,32.99,2.77-.11,5.55-.21,8.32-.31-.99-10.89-1.99-21.79-2.97-32.71ZM466.52,618.12c-.32-4.24-.62-8.48-.62-8.48-.27,0-.54,0-.8,0,0,0-.17,4.25-.65,8.5-1.09,10.97-2.18,21.96-3.27,32.99,2.77-.11,5.55-.21,8.32-.31-.99-10.89-1.99-21.79-2.97-32.71ZM531.68,607.84c-1.71,0-3.42,0-5.13,0,0,8.08,0,16.16,0,24.23,1.71,0,3.42-.02,5.13-.02,4,0,5.92-1.67,5.92-5.13v-13.97c0-3.46-1.92-5.12-5.92-5.12ZM531.68,607.84c-1.71,0-3.42,0-5.13,0,0,8.08,0,16.16,0,24.23,1.71,0,3.42-.02,5.13-.02,4,0,5.92-1.67,5.92-5.13v-13.97c0-3.46-1.92-5.12-5.92-5.12ZM466.52,618.12c-.32-4.24-.62-8.48-.62-8.48-.27,0-.54,0-.8,0,0,0-.17,4.25-.65,8.5-1.09,10.97-2.18,21.96-3.27,32.99,2.77-.11,5.55-.21,8.32-.31-.99-10.89-1.99-21.79-2.97-32.71Z"/>
    <path class="cls-1" d="M572.57,374.51c-6.37,5.92-10.53,14.22-11.27,22.9-.63,7.47,1.36,15.45,6.63,20.96,3.14,3.28,7.32,5.58,11.79,6.37,4.01.71,8.21.15,11.97-1.38-.89.12-1.79.21-2.69.26-6.61.32-13.54-2.2-17.75-7.43-3.96-4.92-5.26-11.53-4.59-17.71.77-7.1,4.07-13.85,8.99-19,4.43-4.65,10.37-8.14,16.85-8.79,6.52-.65,13.27,2.03,17.54,7.01,1.59,1.84,2.83,3.95,3.85,6.15-.17-1.12-.45-2.22-.81-3.3-1.33-4-3.87-7.6-7.26-10.12-3.56-2.66-7.96-4.09-12.38-4.27-7.73-.3-15.26,3.16-20.86,8.35Z"/>
    <path class="cls-1" d="M617.1,398.92c-.54-1.96-1.55-3.82-2.97-5.29-1.59-1.62-3.59-2.72-5.53-3.85-2.03-1.18-4.06-2.37-6.04-3.62-1.94-1.23-3.84-2.59-6.02-3.38-3.47-1.26-7.41-.73-10.64.95-6.27,3.27-10.24,10.71-9.04,17.74.34,1.95,1.05,3.86,2.22,5.46,1.31,1.78,3.16,3.05,5.03,4.2,4.09,2.52,8.27,4.94,12.4,7.42.52.12.97.41,1.47.61.5.21,1.04.33,1.58.43,6.73,1.25,13.28-3.32,16.22-9.16,1.78-3.51,2.4-7.68,1.33-11.5ZM596.01,385.92c2.6,1.55,5.21,3.12,7.8,4.67-1.51.11-2.97.57-4.37,1.14-.35.13-.69.28-1,.48-.28.17-.5.43-.84.49-.62.13-1.12-.41-1.55-.77-1.33-1.05-2.89-1.75-4.35-2.59-1.52-.88-3.01-1.81-4.53-2.71,2.63-1.46,6.08-2.36,8.84-.72ZM584.09,388.85c.32-.3.67-.59,1.14-.52.59.09,1,.64,1.46.97.49.36,1.04.62,1.57.92,2.4,1.36,4.73,2.83,7.09,4.24-.69.69-1.3,1.47-1.81,2.31-3.59-2.15-7.18-4.3-10.77-6.45.34-.57.83-1.04,1.32-1.48ZM590.11,410.33c-1.62-.96-3.27-1.87-4.84-2.9-.69-.46-1.36-.99-2.16-1.25-.38-.13-1.22-.18-1.19-.76-1.13-.72-2.25-1.83-2.17-3.27.09-1.79,1.58-3.15,2.94-4.11-.66,2.01-.99,4.18-.58,6.28.5-1.89,1.75-3.49,3.27-4.67-.72,2.17-.81,4.53-.39,6.77.5-1.99,1.78-3.7,3.31-5.03-.73,2.01-1,4.18-.8,6.3.54-1.9,1.77-3.56,3.26-4.84-.87,2.37-1.19,4.99-.64,7.47ZM612.2,409.93c-2.36,3.94-6.93,7.28-11.72,6.41-4.63-.84-7.24-5.78-7-10.18.26-4.81,3.29-9.52,7.68-11.58,3.9-1.83,9.21-1.05,11.65,2.75,2.44,3.81,1.61,8.89-.61,12.6Z"/>
  </g>
  <g>
    <g>
      <path class="cls-1" d="M422.02,781.72c0-20.63,0-41.27,0-61.9,10.72-.96,21.42-1.84,32.16-2.62,2.19-.15,4.07.55,5.65,2.12,1.58,1.56,2.38,3.52,2.38,5.84,0,9.99.01,19.99.02,29.98,0,1.63-.41,3.14-1.23,4.52-.82,1.38-1.93,2.41-3.34,3.1,1.87,7.55,2.81,11.34,4.68,18.96h-14.03c-1.82-7.17-2.73-10.74-4.54-17.83-3.24.07-4.87.11-8.11.18,0,7.06,0,10.59,0,17.65-5.46,0-8.18,0-13.64,0ZM435.65,751.44c5.19-.21,7.79-.31,12.99-.49,0-8.21,0-12.32-.01-20.52-5.19.3-7.79.47-12.98.81,0,8.08,0,12.12,0,20.2Z"/>
      <path class="cls-1" d="M468.51,781.72c3.66-18.19,7.3-36.38,10.92-54.58-.99-4.53-1.48-6.78-2.47-11.29,10.03-.5,15.05-.7,25.09-1,4.19,22.29,8.36,44.57,12.51,66.87-5.47,0-8.21,0-13.68,0-.9-5.35-1.35-8.02-2.25-13.36-5.61.04-8.42.06-14.03.11-.93,5.31-1.39,7.96-2.32,13.25h-13.77ZM486.88,755.22c3.85-.06,5.78-.09,9.63-.15-1.73-10.65-2.6-15.97-4.33-26.57-.26,0-.39.01-.65.02-1.86,10.71-2.79,16.05-4.65,26.7Z"/>
      <path class="cls-1" d="M528.77,781.72c-2.22,0-4.12-.86-5.7-2.58-1.58-1.72-2.38-3.77-2.38-6.14,0-3.77,0-5.66,0-9.43,5.46-1.37,8.19-2.06,13.64-3.42,0,3.23,0,4.85,0,8.09,3.95,0,5.93,0,9.89,0,0-4.57,0-6.85,0-11.42-7.43-3.45-11.14-5.17-18.57-8.57-1.5-.68-2.7-1.74-3.61-3.17-.91-1.43-1.36-3.02-1.36-4.78,0-6.83,0-10.25,0-17.08,0-2.41.79-4.48,2.37-6.23,1.58-1.74,3.48-2.62,5.7-2.64,8.42-.07,12.63-.07,21.04,0,2.19.02,4.08.9,5.68,2.64,1.6,1.74,2.4,3.82,2.4,6.23,0,3.75,0,5.63,0,9.38-5.46,1.29-8.19,1.95-13.65,3.29,0-3.23,0-4.85,0-8.08-3.96-.01-5.94-.01-9.89,0,0,3.78,0,5.67,0,9.45,7.43,3.4,11.14,5.13,18.57,8.59,1.5.7,2.7,1.77,3.61,3.22.91,1.44,1.36,3.04,1.36,4.79,0,7.66,0,11.48,0,19.14,0,2.38-.79,4.42-2.38,6.14-1.58,1.72-3.48,2.58-5.7,2.58h-21.02Z"/>
      <path class="cls-1" d="M626.19,781.72c0-8.49,0-12.74.01-21.23-5.49-14.69-10.89-29.42-16.24-44.16,5.84.33,8.75.52,14.58.92,2.79,9.16,5.6,18.32,8.44,27.46,3.37-10.59,5.06-15.83,8.42-26.18,5.83.48,8.74.74,14.56,1.29-5.51,13.64-10.92,27.31-16.26,41.01,0,8.36,0,12.53,0,20.89h-13.51Z"/>
      <path class="cls-1" d="M574.7,781.72c-2.22,0-4.11-.86-5.7-2.57-1.58-1.72-2.37-3.76-2.37-6.13,0-3.76,0-5.64,0-9.41,5.46-1.32,8.19-1.97,13.64-3.25,0,3.2,0,4.8,0,8,3.95.03,5.93.04,9.89.07,0-4.5,0-6.75,0-11.25-7.42-3.5-11.14-5.26-18.56-8.78-1.5-.7-2.7-1.78-3.6-3.22-.91-1.45-1.36-3.04-1.36-4.79,0-6.81,0-10.22,0-17.03,0-2.4.79-4.45,2.38-6.12,1.58-1.68,3.49-2.48,5.7-2.42,8.42.24,12.62.4,21.03.78,2.19.1,4.08,1.04,5.68,2.8,1.6,1.76,2.39,3.82,2.39,6.17,0,3.67,0,5.5,0,9.17-5.46,1.11-8.19,1.69-13.65,2.87,0-3.18,0-4.78,0-7.96-3.96-.13-5.93-.19-9.89-.29,0,3.74,0,5.61,0,9.35,7.43,3.55,11.14,5.33,18.56,8.87,1.5.71,2.7,1.79,3.6,3.22s1.36,3,1.36,4.71c0,7.48,0,11.22-.01,18.7,0,2.32-.8,4.32-2.38,6-1.58,1.68-3.48,2.53-5.7,2.53-8.41,0-12.61,0-21.02,0Z"/>
    </g>
    <path class="cls-1" d="M331.35,750.61c26.88-1.6,53.77-2.89,80.67-3.87v7.75c-26.9-.99-53.79-2.28-80.67-3.88Z"/>
    <path class="cls-1" d="M748.17,750.61c-31.79,1.9-63.61,3.37-95.44,4.39,1.15-2.91,2.29-5.8,3.43-8.68,30.68,1.02,61.36,2.45,92.01,4.29Z"/>
  </g>
</svg>